<mxfile host="app.diagrams.net" agent="Mozilla/5.0 (Windows NT 10.0; Win64; x64) AppleWebKit/537.36 (KHTML, like Gecko) Chrome/131.0.0.0 Safari/537.36" version="25.0.3">
  <diagram name="Page-1" id="2uwV3zbKAbhNp62dGog3">
    <mxGraphModel dx="3749" dy="2180" grid="1" gridSize="10" guides="1" tooltips="1" connect="1" arrows="1" fold="1" page="1" pageScale="1" pageWidth="850" pageHeight="1100" math="0" shadow="0">
      <root>
        <mxCell id="0" />
        <mxCell id="1" parent="0" />
        <UserObject label="" plantUmlData="{&#xa;  &quot;data&quot;: &quot;@startuml\n\nstart\n\n:User logs into the system;\nif (Credentials valid?) then (yes)\n    :Show user dashboard;\nelse (no)\n    :Show login error;\n    stop\nendif\n\n:Select an action;\nswitch (Selected Action)\ncase (Take Assessment)\n    :Display available assessments;\n    :User selects an assessment;\n    :Generate assessment questions;\n    :Submit answers;\n    :Calculate results;\n    :Display results;\ncase (Generate Roadmap)\n    if (Assessments completed?) then (yes)\n        :Analyze assessment results;\n        :Generate personalized roadmap;\n        :Display roadmap;\n    else (no)\n        :Prompt user to complete assessments;\n    endif\ncase (Join Community)\n    :Search for communities;\n    :Display community list;\n    :User selects a community;\n    :Join community;\n    :Confirm membership;\ncase (Access Learning Resources)\n    :Display learning resources;\n    if (Resources available?) then (yes)\n        :User accesses a resource;\n    else (no)\n        :Show no resources available;\n    endif\ncase (Request Mentorship)\n    :Display available mentors;\n    :User submits mentorship request;\n    :Confirm request;\ncase (Provide Feedback)\n    :User submits feedback;\n    :Store feedback;\n    :Show confirmation;\ncase (View Notifications)\n    :Fetch notifications;\n    if (Notifications available?) then (yes)\n        :Display notifications;\n    else (no)\n        :Show no notifications message;\n    endif\ncase (Earn Badges)\n    :User completes a milestone;\n    if (Badge already earned?) then (yes)\n        :Notify badge already earned;\n    else (no)\n        :Award badge;\n        :Notify badge earned;\n    endif\ncase (Download Certificate)\n    :User selects certificate;\n    :Generate downloadable certificate;\n    :Provide download link;\ncase (Moderate Community)\n    :Admin reviews flagged content;\n    if (Flagged content exists?) then (yes)\n        :Admin takes moderation action;\n        :Update content status;\n        :Notify moderation success;\n    else (no)\n        :Show no flagged content;\n    endif\ncase (Monitor System Analytics)\n    :Admin requests analytics report;\n    :Generate analytics data;\n    :Display analytics report;\ncase (Reset Password)\n    :User submits reset request;\n    if (Email exists?) then (yes)\n        :Send reset link;\n        :Notify user to check email;\n    else (no)\n        :Show email not found error;\n    endif\nendswitch\n\n:User logs out;\nstop\n\n@enduml\n&quot;,&#xa;  &quot;format&quot;: &quot;svg&quot;&#xa;}" id="rDkEO_ggWXNPylEetFit-1">
          <mxCell style="shape=image;noLabel=1;verticalAlign=top;aspect=fixed;imageAspect=0;image=data:image/svg+xml,PD94bWwgdmVyc2lvbj0iMS4wIiBlbmNvZGluZz0idXMtYXNjaWkiIHN0YW5kYWxvbmU9Im5vIj8+PHN2ZyB4bWxucz0iaHR0cDovL3d3dy53My5vcmcvMjAwMC9zdmciIHhtbG5zOnhsaW5rPSJodHRwOi8vd3d3LnczLm9yZy8xOTk5L3hsaW5rIiBjb250ZW50U3R5bGVUeXBlPSJ0ZXh0L2NzcyIgaGVpZ2h0PSI4NDhweCIgcHJlc2VydmVBc3BlY3RSYXRpbz0ibm9uZSIgc3R5bGU9IndpZHRoOjM4NzRweDtoZWlnaHQ6ODQ4cHg7YmFja2dyb3VuZDojRkZGRkZGOyIgdmVyc2lvbj0iMS4xIiB2aWV3Qm94PSIwIDAgMzg3NCA4NDgiIHdpZHRoPSIzODc0cHgiIHpvb21BbmRQYW49Im1hZ25pZnkiPjxkZWZzLz48Zz48ZWxsaXBzZSBjeD0iMTk0Mi4yNSIgY3k9IjIwIiBmaWxsPSIjMjIyMjIyIiByeD0iMTAiIHJ5PSIxMCIgc3R5bGU9InN0cm9rZTojMjIyMjIyO3N0cm9rZS13aWR0aDoxLjA7Ii8+PHJlY3QgZmlsbD0iI0YxRjFGMSIgaGVpZ2h0PSIzMi44NDM4IiByeD0iMTIuNSIgcnk9IjEyLjUiIHN0eWxlPSJzdHJva2U6IzE4MTgxODtzdHJva2Utd2lkdGg6MC41OyIgd2lkdGg9IjE4NSIgeD0iMTg0OS43NSIgeT0iNTAiLz48dGV4dCBmaWxsPSIjMDAwMDAwIiBmb250LWZhbWlseT0ic2Fucy1zZXJpZiIgZm9udC1zaXplPSIxMiIgbGVuZ3RoQWRqdXN0PSJzcGFjaW5nIiB0ZXh0TGVuZ3RoPSIxNjUiIHg9IjE4NTkuNzUiIHk9IjcxLjM0MzgiPlVzZXIgbG9ncyBpbnRvIHRoZSBzeXN0ZW08L3RleHQ+PHBvbHlnb24gZmlsbD0iI0YxRjFGMSIgcG9pbnRzPSIxODg4LjI1LDEwMi44NDM4LDE5OTYuMjUsMTAyLjg0MzgsMjAwOC4yNSwxMTQuODQzOCwxOTk2LjI1LDEyNi44NDM4LDE4ODguMjUsMTI2Ljg0MzgsMTg3Ni4yNSwxMTQuODQzOCwxODg4LjI1LDEwMi44NDM4IiBzdHlsZT0ic3Ryb2tlOiMxODE4MTg7c3Ryb2tlLXdpZHRoOjAuNTsiLz48dGV4dCBmaWxsPSIjMDAwMDAwIiBmb250LWZhbWlseT0ic2Fucy1zZXJpZiIgZm9udC1zaXplPSIxMSIgbGVuZ3RoQWRqdXN0PSJzcGFjaW5nIiB0ZXh0TGVuZ3RoPSIxMDgiIHg9IjE4ODguMjUiIHk9IjExOS4zNTU1Ij5DcmVkZW50aWFscyB2YWxpZD88L3RleHQ+PHRleHQgZmlsbD0iIzAwMDAwMCIgZm9udC1mYW1pbHk9InNhbnMtc2VyaWYiIGZvbnQtc2l6ZT0iMTEiIGxlbmd0aEFkanVzdD0ic3BhY2luZyIgdGV4dExlbmd0aD0iMTgiIHg9IjE4NTguMjUiIHk9IjExMy40Njg4Ij55ZXM8L3RleHQ+PHRleHQgZmlsbD0iIzAwMDAwMCIgZm9udC1mYW1pbHk9InNhbnMtc2VyaWYiIGZvbnQtc2l6ZT0iMTEiIGxlbmd0aEFkanVzdD0ic3BhY2luZyIgdGV4dExlbmd0aD0iMTIiIHg9IjIwMDguMjUiIHk9IjExMy40Njg4Ij5ubzwvdGV4dD48cmVjdCBmaWxsPSIjRjFGMUYxIiBoZWlnaHQ9IjMyLjg0MzgiIHJ4PSIxMi41IiByeT0iMTIuNSIgc3R5bGU9InN0cm9rZTojMTgxODE4O3N0cm9rZS13aWR0aDowLjU7IiB3aWR0aD0iMTUwIiB4PSIxNzg4IiB5PSIxMzYuODQzOCIvPjx0ZXh0IGZpbGw9IiMwMDAwMDAiIGZvbnQtZmFtaWx5PSJzYW5zLXNlcmlmIiBmb250LXNpemU9IjEyIiBsZW5ndGhBZGp1c3Q9InNwYWNpbmciIHRleHRMZW5ndGg9IjEzMCIgeD0iMTc5OCIgeT0iMTU4LjE4NzUiPlNob3cgdXNlciBkYXNoYm9hcmQ8L3RleHQ+PHJlY3QgZmlsbD0iI0YxRjFGMSIgaGVpZ2h0PSIzMi44NDM4IiByeD0iMTIuNSIgcnk9IjEyLjUiIHN0eWxlPSJzdHJva2U6IzE4MTgxODtzdHJva2Utd2lkdGg6MC41OyIgd2lkdGg9IjEyNyIgeD0iMTk1OCIgeT0iMTM2Ljg0MzgiLz48dGV4dCBmaWxsPSIjMDAwMDAwIiBmb250LWZhbWlseT0ic2Fucy1zZXJpZiIgZm9udC1zaXplPSIxMiIgbGVuZ3RoQWRqdXN0PSJzcGFjaW5nIiB0ZXh0TGVuZ3RoPSIxMDciIHg9IjE5NjgiIHk9IjE1OC4xODc1Ij5TaG93IGxvZ2luIGVycm9yPC90ZXh0PjxlbGxpcHNlIGN4PSIyMDIxLjUiIGN5PSIyMDAuNjg3NSIgZmlsbD0ibm9uZSIgcng9IjExIiByeT0iMTEiIHN0eWxlPSJzdHJva2U6IzIyMjIyMjtzdHJva2Utd2lkdGg6MS4wOyIvPjxlbGxpcHNlIGN4PSIyMDIxLjUiIGN5PSIyMDAuNjg3NSIgZmlsbD0iIzIyMjIyMiIgcng9IjYiIHJ5PSI2IiBzdHlsZT0ic3Ryb2tlOiMyMjIyMjI7c3Ryb2tlLXdpZHRoOjEuMDsiLz48cmVjdCBmaWxsPSIjRjFGMUYxIiBoZWlnaHQ9IjMyLjg0MzgiIHJ4PSIxMi41IiByeT0iMTIuNSIgc3R5bGU9InN0cm9rZTojMTgxODE4O3N0cm9rZS13aWR0aDowLjU7IiB3aWR0aD0iMTI0IiB4PSIxODgwLjI1IiB5PSIyMzEuNjg3NSIvPjx0ZXh0IGZpbGw9IiMwMDAwMDAiIGZvbnQtZmFtaWx5PSJzYW5zLXNlcmlmIiBmb250LXNpemU9IjEyIiBsZW5ndGhBZGp1c3Q9InNwYWNpbmciIHRleHRMZW5ndGg9IjEwNCIgeD0iMTg5MC4yNSIgeT0iMjUzLjAzMTMiPlNlbGVjdCBhbiBhY3Rpb248L3RleHQ+PHBvbHlnb24gZmlsbD0iI0YxRjFGMSIgcG9pbnRzPSIxODk3LjI1LDI4NC41MzEzLDE5ODcuMjUsMjg0LjUzMTMsMTk5OS4yNSwyOTYuNTMxMywxOTg3LjI1LDMwOC41MzEzLDE4OTcuMjUsMzA4LjUzMTMsMTg4NS4yNSwyOTYuNTMxMywxODk3LjI1LDI4NC41MzEzIiBzdHlsZT0ic3Ryb2tlOiMxODE4MTg7c3Ryb2tlLXdpZHRoOjAuNTsiLz48dGV4dCBmaWxsPSIjMDAwMDAwIiBmb250LWZhbWlseT0ic2Fucy1zZXJpZiIgZm9udC1zaXplPSIxMSIgbGVuZ3RoQWRqdXN0PSJzcGFjaW5nIiB0ZXh0TGVuZ3RoPSI5MCIgeD0iMTg5Ny4yNSIgeT0iMzAxLjA0MyI+U2VsZWN0ZWQgQWN0aW9uPC90ZXh0PjxyZWN0IGZpbGw9IiNGMUYxRjEiIGhlaWdodD0iMzIuODQzOCIgcng9IjEyLjUiIHJ5PSIxMi41IiBzdHlsZT0ic3Ryb2tlOiMxODE4MTg7c3Ryb2tlLXdpZHRoOjAuNTsiIHdpZHRoPSIyMTQiIHg9IjEyIiB5PSIzNDIuMDc4MSIvPjx0ZXh0IGZpbGw9IiMwMDAwMDAiIGZvbnQtZmFtaWx5PSJzYW5zLXNlcmlmIiBmb250LXNpemU9IjEyIiBsZW5ndGhBZGp1c3Q9InNwYWNpbmciIHRleHRMZW5ndGg9IjE5NCIgeD0iMjIiIHk9IjM2My40MjE5Ij5EaXNwbGF5IGF2YWlsYWJsZSBhc3Nlc3NtZW50czwvdGV4dD48cmVjdCBmaWxsPSIjRjFGMUYxIiBoZWlnaHQ9IjMyLjg0MzgiIHJ4PSIxMi41IiByeT0iMTIuNSIgc3R5bGU9InN0cm9rZTojMTgxODE4O3N0cm9rZS13aWR0aDowLjU7IiB3aWR0aD0iMTk0IiB4PSIyMiIgeT0iNDA5LjkyMTkiLz48dGV4dCBmaWxsPSIjMDAwMDAwIiBmb250LWZhbWlseT0ic2Fucy1zZXJpZiIgZm9udC1zaXplPSIxMiIgbGVuZ3RoQWRqdXN0PSJzcGFjaW5nIiB0ZXh0TGVuZ3RoPSIxNzQiIHg9IjMyIiB5PSI0MzEuMjY1NiI+VXNlciBzZWxlY3RzIGFuIGFzc2Vzc21lbnQ8L3RleHQ+PHJlY3QgZmlsbD0iI0YxRjFGMSIgaGVpZ2h0PSIzMi44NDM4IiByeD0iMTIuNSIgcnk9IjEyLjUiIHN0eWxlPSJzdHJva2U6IzE4MTgxODtzdHJva2Utd2lkdGg6MC41OyIgd2lkdGg9IjIxNiIgeD0iMTEiIHk9IjQ3Ny43NjU2Ii8+PHRleHQgZmlsbD0iIzAwMDAwMCIgZm9udC1mYW1pbHk9InNhbnMtc2VyaWYiIGZvbnQtc2l6ZT0iMTIiIGxlbmd0aEFkanVzdD0ic3BhY2luZyIgdGV4dExlbmd0aD0iMTk2IiB4PSIyMSIgeT0iNDk5LjEwOTQiPkdlbmVyYXRlIGFzc2Vzc21lbnQgcXVlc3Rpb25zPC90ZXh0PjxyZWN0IGZpbGw9IiNGMUYxRjEiIGhlaWdodD0iMzIuODQzOCIgcng9IjEyLjUiIHJ5PSIxMi41IiBzdHlsZT0ic3Ryb2tlOiMxODE4MTg7c3Ryb2tlLXdpZHRoOjAuNTsiIHdpZHRoPSIxMTMiIHg9IjYyLjUiIHk9IjU0NS42MDk0Ii8+PHRleHQgZmlsbD0iIzAwMDAwMCIgZm9udC1mYW1pbHk9InNhbnMtc2VyaWYiIGZvbnQtc2l6ZT0iMTIiIGxlbmd0aEFkanVzdD0ic3BhY2luZyIgdGV4dExlbmd0aD0iOTMiIHg9IjcyLjUiIHk9IjU2Ni45NTMxIj5TdWJtaXQgYW5zd2VyczwvdGV4dD48cmVjdCBmaWxsPSIjRjFGMUYxIiBoZWlnaHQ9IjMyLjg0MzgiIHJ4PSIxMi41IiByeT0iMTIuNSIgc3R5bGU9InN0cm9rZTojMTgxODE4O3N0cm9rZS13aWR0aDowLjU7IiB3aWR0aD0iMTMyIiB4PSI1MyIgeT0iNjEzLjQ1MzEiLz48dGV4dCBmaWxsPSIjMDAwMDAwIiBmb250LWZhbWlseT0ic2Fucy1zZXJpZiIgZm9udC1zaXplPSIxMiIgbGVuZ3RoQWRqdXN0PSJzcGFjaW5nIiB0ZXh0TGVuZ3RoPSIxMTIiIHg9IjYzIiB5PSI2MzQuNzk2OSI+Q2FsY3VsYXRlIHJlc3VsdHM8L3RleHQ+PHJlY3QgZmlsbD0iI0YxRjFGMSIgaGVpZ2h0PSIzMi44NDM4IiByeD0iMTIuNSIgcnk9IjEyLjUiIHN0eWxlPSJzdHJva2U6IzE4MTgxODtzdHJva2Utd2lkdGg6MC41OyIgd2lkdGg9IjEyMCIgeD0iNTkiIHk9IjY2Ni4yOTY5Ii8+PHRleHQgZmlsbD0iIzAwMDAwMCIgZm9udC1mYW1pbHk9InNhbnMtc2VyaWYiIGZvbnQtc2l6ZT0iMTIiIGxlbmd0aEFkanVzdD0ic3BhY2luZyIgdGV4dExlbmd0aD0iMTAwIiB4PSI2OSIgeT0iNjg3LjY0MDYiPkRpc3BsYXkgcmVzdWx0czwvdGV4dD48cG9seWdvbiBmaWxsPSIjRjFGMUYxIiBwb2ludHM9IjQwNiwzNDIuMDc4MSw1MzgsMzQyLjA3ODEsNTUwLDM1NC4wNzgxLDUzOCwzNjYuMDc4MSw0MDYsMzY2LjA3ODEsMzk0LDM1NC4wNzgxLDQwNiwzNDIuMDc4MSIgc3R5bGU9InN0cm9rZTojMTgxODE4O3N0cm9rZS13aWR0aDowLjU7Ii8+PHRleHQgZmlsbD0iIzAwMDAwMCIgZm9udC1mYW1pbHk9InNhbnMtc2VyaWYiIGZvbnQtc2l6ZT0iMTEiIGxlbmd0aEFkanVzdD0ic3BhY2luZyIgdGV4dExlbmd0aD0iMTMyIiB4PSI0MDYiIHk9IjM1OC41ODk4Ij5Bc3Nlc3NtZW50cyBjb21wbGV0ZWQ/PC90ZXh0Pjx0ZXh0IGZpbGw9IiMwMDAwMDAiIGZvbnQtZmFtaWx5PSJzYW5zLXNlcmlmIiBmb250LXNpemU9IjExIiBsZW5ndGhBZGp1c3Q9InNwYWNpbmciIHRleHRMZW5ndGg9IjE4IiB4PSIzNzYiIHk9IjM1Mi43MDMxIj55ZXM8L3RleHQ+PHRleHQgZmlsbD0iIzAwMDAwMCIgZm9udC1mYW1pbHk9InNhbnMtc2VyaWYiIGZvbnQtc2l6ZT0iMTEiIGxlbmd0aEFkanVzdD0ic3BhY2luZyIgdGV4dExlbmd0aD0iMTIiIHg9IjU1MCIgeT0iMzUyLjcwMzEiPm5vPC90ZXh0PjxyZWN0IGZpbGw9IiNGMUYxRjEiIGhlaWdodD0iMzIuODQzOCIgcng9IjEyLjUiIHJ5PSIxMi41IiBzdHlsZT0ic3Ryb2tlOiMxODE4MTg7c3Ryb2tlLXdpZHRoOjAuNTsiIHdpZHRoPSIxOTQiIHg9IjI0OCIgeT0iMzc2LjA3ODEiLz48dGV4dCBmaWxsPSIjMDAwMDAwIiBmb250LWZhbWlseT0ic2Fucy1zZXJpZiIgZm9udC1zaXplPSIxMiIgbGVuZ3RoQWRqdXN0PSJzcGFjaW5nIiB0ZXh0TGVuZ3RoPSIxNzQiIHg9IjI1OCIgeT0iMzk3LjQyMTkiPkFuYWx5emUgYXNzZXNzbWVudCByZXN1bHRzPC90ZXh0PjxyZWN0IGZpbGw9IiNGMUYxRjEiIGhlaWdodD0iMzIuODQzOCIgcng9IjEyLjUiIHJ5PSIxMi41IiBzdHlsZT0ic3Ryb2tlOiMxODE4MTg7c3Ryb2tlLXdpZHRoOjAuNTsiIHdpZHRoPSIyMTYiIHg9IjIzNyIgeT0iNDQzLjkyMTkiLz48dGV4dCBmaWxsPSIjMDAwMDAwIiBmb250LWZhbWlseT0ic2Fucy1zZXJpZiIgZm9udC1zaXplPSIxMiIgbGVuZ3RoQWRqdXN0PSJzcGFjaW5nIiB0ZXh0TGVuZ3RoPSIxOTYiIHg9IjI0NyIgeT0iNDY1LjI2NTYiPkdlbmVyYXRlIHBlcnNvbmFsaXplZCByb2FkbWFwPC90ZXh0PjxyZWN0IGZpbGw9IiNGMUYxRjEiIGhlaWdodD0iMzIuODQzOCIgcng9IjEyLjUiIHJ5PSIxMi41IiBzdHlsZT0ic3Ryb2tlOiMxODE4MTg7c3Ryb2tlLXdpZHRoOjAuNTsiIHdpZHRoPSIxMjEiIHg9IjI4NC41IiB5PSI1MTEuNzY1NiIvPjx0ZXh0IGZpbGw9IiMwMDAwMDAiIGZvbnQtZmFtaWx5PSJzYW5zLXNlcmlmIiBmb250LXNpemU9IjEyIiBsZW5ndGhBZGp1c3Q9InNwYWNpbmciIHRleHRMZW5ndGg9IjEwMSIgeD0iMjk0LjUiIHk9IjUzMy4xMDk0Ij5EaXNwbGF5IHJvYWRtYXA8L3RleHQ+PHJlY3QgZmlsbD0iI0YxRjFGMSIgaGVpZ2h0PSIzMi44NDM4IiByeD0iMTIuNSIgcnk9IjEyLjUiIHN0eWxlPSJzdHJva2U6IzE4MTgxODtzdHJva2Utd2lkdGg6MC41OyIgd2lkdGg9IjI1MiIgeD0iNDczIiB5PSIzNzYuMDc4MSIvPjx0ZXh0IGZpbGw9IiMwMDAwMDAiIGZvbnQtZmFtaWx5PSJzYW5zLXNlcmlmIiBmb250LXNpemU9IjEyIiBsZW5ndGhBZGp1c3Q9InNwYWNpbmciIHRleHRMZW5ndGg9IjIzMiIgeD0iNDgzIiB5PSIzOTcuNDIxOSI+UHJvbXB0IHVzZXIgdG8gY29tcGxldGUgYXNzZXNzbWVudHM8L3RleHQ+PHBvbHlnb24gZmlsbD0iI0YxRjFGMSIgcG9pbnRzPSI0NzIsNTUwLjYwOTQsNDg0LDU2Mi42MDk0LDQ3Miw1NzQuNjA5NCw0NjAsNTYyLjYwOTQsNDcyLDU1MC42MDk0IiBzdHlsZT0ic3Ryb2tlOiMxODE4MTg7c3Ryb2tlLXdpZHRoOjAuNTsiLz48cmVjdCBmaWxsPSIjRjFGMUYxIiBoZWlnaHQ9IjMyLjg0MzgiIHJ4PSIxMi41IiByeT0iMTIuNSIgc3R5bGU9InN0cm9rZTojMTgxODE4O3N0cm9rZS13aWR0aDowLjU7IiB3aWR0aD0iMTY0IiB4PSI3NDEuNSIgeT0iMzQyLjA3ODEiLz48dGV4dCBmaWxsPSIjMDAwMDAwIiBmb250LWZhbWlseT0ic2Fucy1zZXJpZiIgZm9udC1zaXplPSIxMiIgbGVuZ3RoQWRqdXN0PSJzcGFjaW5nIiB0ZXh0TGVuZ3RoPSIxNDQiIHg9Ijc1MS41IiB5PSIzNjMuNDIxOSI+U2VhcmNoIGZvciBjb21tdW5pdGllczwvdGV4dD48cmVjdCBmaWxsPSIjRjFGMUYxIiBoZWlnaHQ9IjMyLjg0MzgiIHJ4PSIxMi41IiByeT0iMTIuNSIgc3R5bGU9InN0cm9rZTojMTgxODE4O3N0cm9rZS13aWR0aDowLjU7IiB3aWR0aD0iMTYyIiB4PSI3NDIuNSIgeT0iNDA5LjkyMTkiLz48dGV4dCBmaWxsPSIjMDAwMDAwIiBmb250LWZhbWlseT0ic2Fucy1zZXJpZiIgZm9udC1zaXplPSIxMiIgbGVuZ3RoQWRqdXN0PSJzcGFjaW5nIiB0ZXh0TGVuZ3RoPSIxNDIiIHg9Ijc1Mi41IiB5PSI0MzEuMjY1NiI+RGlzcGxheSBjb21tdW5pdHkgbGlzdDwvdGV4dD48cmVjdCBmaWxsPSIjRjFGMUYxIiBoZWlnaHQ9IjMyLjg0MzgiIHJ4PSIxMi41IiByeT0iMTIuNSIgc3R5bGU9InN0cm9rZTojMTgxODE4O3N0cm9rZS13aWR0aDowLjU7IiB3aWR0aD0iMTc3IiB4PSI3MzUiIHk9IjQ3Ny43NjU2Ii8+PHRleHQgZmlsbD0iIzAwMDAwMCIgZm9udC1mYW1pbHk9InNhbnMtc2VyaWYiIGZvbnQtc2l6ZT0iMTIiIGxlbmd0aEFkanVzdD0ic3BhY2luZyIgdGV4dExlbmd0aD0iMTU3IiB4PSI3NDUiIHk9IjQ5OS4xMDk0Ij5Vc2VyIHNlbGVjdHMgYSBjb21tdW5pdHk8L3RleHQ+PHJlY3QgZmlsbD0iI0YxRjFGMSIgaGVpZ2h0PSIzMi44NDM4IiByeD0iMTIuNSIgcnk9IjEyLjUiIHN0eWxlPSJzdHJva2U6IzE4MTgxODtzdHJva2Utd2lkdGg6MC41OyIgd2lkdGg9IjExMCIgeD0iNzY4LjUiIHk9IjU0NS42MDk0Ii8+PHRleHQgZmlsbD0iIzAwMDAwMCIgZm9udC1mYW1pbHk9InNhbnMtc2VyaWYiIGZvbnQtc2l6ZT0iMTIiIGxlbmd0aEFkanVzdD0ic3BhY2luZyIgdGV4dExlbmd0aD0iOTAiIHg9Ijc3OC41IiB5PSI1NjYuOTUzMSI+Sm9pbiBjb21tdW5pdHk8L3RleHQ+PHJlY3QgZmlsbD0iI0YxRjFGMSIgaGVpZ2h0PSIzMi44NDM4IiByeD0iMTIuNSIgcnk9IjEyLjUiIHN0eWxlPSJzdHJva2U6IzE4MTgxODtzdHJva2Utd2lkdGg6MC41OyIgd2lkdGg9IjEzOSIgeD0iNzU0IiB5PSI2MTMuNDUzMSIvPjx0ZXh0IGZpbGw9IiMwMDAwMDAiIGZvbnQtZmFtaWx5PSJzYW5zLXNlcmlmIiBmb250LXNpemU9IjEyIiBsZW5ndGhBZGp1c3Q9InNwYWNpbmciIHRleHRMZW5ndGg9IjExOSIgeD0iNzY0IiB5PSI2MzQuNzk2OSI+Q29uZmlybSBtZW1iZXJzaGlwPC90ZXh0PjxyZWN0IGZpbGw9IiNGMUYxRjEiIGhlaWdodD0iMzIuODQzOCIgcng9IjEyLjUiIHJ5PSIxMi41IiBzdHlsZT0ic3Ryb2tlOiMxODE4MTg7c3Ryb2tlLXdpZHRoOjAuNTsiIHdpZHRoPSIxOTUiIHg9IjEwMjEuMjUiIHk9IjM0Mi4wNzgxIi8+PHRleHQgZmlsbD0iIzAwMDAwMCIgZm9udC1mYW1pbHk9InNhbnMtc2VyaWYiIGZvbnQtc2l6ZT0iMTIiIGxlbmd0aEFkanVzdD0ic3BhY2luZyIgdGV4dExlbmd0aD0iMTc1IiB4PSIxMDMxLjI1IiB5PSIzNjMuNDIxOSI+RGlzcGxheSBsZWFybmluZyByZXNvdXJjZXM8L3RleHQ+PHBvbHlnb24gZmlsbD0iI0YxRjFGMSIgcG9pbnRzPSIxMDU4Ljc1LDQwOS45MjE5LDExNzguNzUsNDA5LjkyMTksMTE5MC43NSw0MjEuOTIxOSwxMTc4Ljc1LDQzMy45MjE5LDEwNTguNzUsNDMzLjkyMTksMTA0Ni43NSw0MjEuOTIxOSwxMDU4Ljc1LDQwOS45MjE5IiBzdHlsZT0ic3Ryb2tlOiMxODE4MTg7c3Ryb2tlLXdpZHRoOjAuNTsiLz48dGV4dCBmaWxsPSIjMDAwMDAwIiBmb250LWZhbWlseT0ic2Fucy1zZXJpZiIgZm9udC1zaXplPSIxMSIgbGVuZ3RoQWRqdXN0PSJzcGFjaW5nIiB0ZXh0TGVuZ3RoPSIxMjAiIHg9IjEwNTguNzUiIHk9IjQyNi40MzM2Ij5SZXNvdXJjZXMgYXZhaWxhYmxlPzwvdGV4dD48dGV4dCBmaWxsPSIjMDAwMDAwIiBmb250LWZhbWlseT0ic2Fucy1zZXJpZiIgZm9udC1zaXplPSIxMSIgbGVuZ3RoQWRqdXN0PSJzcGFjaW5nIiB0ZXh0TGVuZ3RoPSIxOCIgeD0iMTAyOC43NSIgeT0iNDIwLjU0NjkiPnllczwvdGV4dD48dGV4dCBmaWxsPSIjMDAwMDAwIiBmb250LWZhbWlseT0ic2Fucy1zZXJpZiIgZm9udC1zaXplPSIxMSIgbGVuZ3RoQWRqdXN0PSJzcGFjaW5nIiB0ZXh0TGVuZ3RoPSIxMiIgeD0iMTE5MC43NSIgeT0iNDIwLjU0NjkiPm5vPC90ZXh0PjxyZWN0IGZpbGw9IiNGMUYxRjEiIGhlaWdodD0iMzIuODQzOCIgcng9IjEyLjUiIHJ5PSIxMi41IiBzdHlsZT0ic3Ryb2tlOiMxODE4MTg7c3Ryb2tlLXdpZHRoOjAuNTsiIHdpZHRoPSIxODIiIHg9IjkyMiIgeT0iNDQzLjkyMTkiLz48dGV4dCBmaWxsPSIjMDAwMDAwIiBmb250LWZhbWlseT0ic2Fucy1zZXJpZiIgZm9udC1zaXplPSIxMiIgbGVuZ3RoQWRqdXN0PSJzcGFjaW5nIiB0ZXh0TGVuZ3RoPSIxNjIiIHg9IjkzMiIgeT0iNDY1LjI2NTYiPlVzZXIgYWNjZXNzZXMgYSByZXNvdXJjZTwvdGV4dD48cmVjdCBmaWxsPSIjRjFGMUYxIiBoZWlnaHQ9IjMyLjg0MzgiIHJ4PSIxMi41IiByeT0iMTIuNSIgc3R5bGU9InN0cm9rZTojMTgxODE4O3N0cm9rZS13aWR0aDowLjU7IiB3aWR0aD0iMjAxIiB4PSIxMTI0IiB5PSI0NDMuOTIxOSIvPjx0ZXh0IGZpbGw9IiMwMDAwMDAiIGZvbnQtZmFtaWx5PSJzYW5zLXNlcmlmIiBmb250LXNpemU9IjEyIiBsZW5ndGhBZGp1c3Q9InNwYWNpbmciIHRleHRMZW5ndGg9IjE4MSIgeD0iMTEzNCIgeT0iNDY1LjI2NTYiPlNob3cgbm8gcmVzb3VyY2VzIGF2YWlsYWJsZTwvdGV4dD48cG9seWdvbiBmaWxsPSIjRjFGMUYxIiBwb2ludHM9IjExMTguNzUsNDgyLjc2NTYsMTEzMC43NSw0OTQuNzY1NiwxMTE4Ljc1LDUwNi43NjU2LDExMDYuNzUsNDk0Ljc2NTYsMTExOC43NSw0ODIuNzY1NiIgc3R5bGU9InN0cm9rZTojMTgxODE4O3N0cm9rZS13aWR0aDowLjU7Ii8+PHJlY3QgZmlsbD0iI0YxRjFGMSIgaGVpZ2h0PSIzMi44NDM4IiByeD0iMTIuNSIgcnk9IjEyLjUiIHN0eWxlPSJzdHJva2U6IzE4MTgxODtzdHJva2Utd2lkdGg6MC41OyIgd2lkdGg9IjE4NiIgeD0iMTM1NS41IiB5PSIzNDIuMDc4MSIvPjx0ZXh0IGZpbGw9IiMwMDAwMDAiIGZvbnQtZmFtaWx5PSJzYW5zLXNlcmlmIiBmb250LXNpemU9IjEyIiBsZW5ndGhBZGp1c3Q9InNwYWNpbmciIHRleHRMZW5ndGg9IjE2NiIgeD0iMTM2NS41IiB5PSIzNjMuNDIxOSI+RGlzcGxheSBhdmFpbGFibGUgbWVudG9yczwvdGV4dD48cmVjdCBmaWxsPSIjRjFGMUYxIiBoZWlnaHQ9IjMyLjg0MzgiIHJ4PSIxMi41IiByeT0iMTIuNSIgc3R5bGU9InN0cm9rZTojMTgxODE4O3N0cm9rZS13aWR0aDowLjU7IiB3aWR0aD0iMjI3IiB4PSIxMzM1IiB5PSI0MDkuOTIxOSIvPjx0ZXh0IGZpbGw9IiMwMDAwMDAiIGZvbnQtZmFtaWx5PSJzYW5zLXNlcmlmIiBmb250LXNpemU9IjEyIiBsZW5ndGhBZGp1c3Q9InNwYWNpbmciIHRleHRMZW5ndGg9IjIwNyIgeD0iMTM0NSIgeT0iNDMxLjI2NTYiPlVzZXIgc3VibWl0cyBtZW50b3JzaGlwIHJlcXVlc3Q8L3RleHQ+PHJlY3QgZmlsbD0iI0YxRjFGMSIgaGVpZ2h0PSIzMi44NDM4IiByeD0iMTIuNSIgcnk9IjEyLjUiIHN0eWxlPSJzdHJva2U6IzE4MTgxODtzdHJva2Utd2lkdGg6MC41OyIgd2lkdGg9IjEyMCIgeD0iMTM4OC41IiB5PSI0NzcuNzY1NiIvPjx0ZXh0IGZpbGw9IiMwMDAwMDAiIGZvbnQtZmFtaWx5PSJzYW5zLXNlcmlmIiBmb250LXNpemU9IjEyIiBsZW5ndGhBZGp1c3Q9InNwYWNpbmciIHRleHRMZW5ndGg9IjEwMCIgeD0iMTM5OC41IiB5PSI0OTkuMTA5NCI+Q29uZmlybSByZXF1ZXN0PC90ZXh0PjxyZWN0IGZpbGw9IiNGMUYxRjEiIGhlaWdodD0iMzIuODQzOCIgcng9IjEyLjUiIHJ5PSIxMi41IiBzdHlsZT0ic3Ryb2tlOiMxODE4MTg7c3Ryb2tlLXdpZHRoOjAuNTsiIHdpZHRoPSIxNTkiIHg9IjE1NzIiIHk9IjM0Mi4wNzgxIi8+PHRleHQgZmlsbD0iIzAwMDAwMCIgZm9udC1mYW1pbHk9InNhbnMtc2VyaWYiIGZvbnQtc2l6ZT0iMTIiIGxlbmd0aEFkanVzdD0ic3BhY2luZyIgdGV4dExlbmd0aD0iMTM5IiB4PSIxNTgyIiB5PSIzNjMuNDIxOSI+VXNlciBzdWJtaXRzIGZlZWRiYWNrPC90ZXh0PjxyZWN0IGZpbGw9IiNGMUYxRjEiIGhlaWdodD0iMzIuODQzOCIgcng9IjEyLjUiIHJ5PSIxMi41IiBzdHlsZT0ic3Ryb2tlOiMxODE4MTg7c3Ryb2tlLXdpZHRoOjAuNTsiIHdpZHRoPSIxMTMiIHg9IjE1OTUiIHk9IjQwOS45MjE5Ii8+PHRleHQgZmlsbD0iIzAwMDAwMCIgZm9udC1mYW1pbHk9InNhbnMtc2VyaWYiIGZvbnQtc2l6ZT0iMTIiIGxlbmd0aEFkanVzdD0ic3BhY2luZyIgdGV4dExlbmd0aD0iOTMiIHg9IjE2MDUiIHk9IjQzMS4yNjU2Ij5TdG9yZSBmZWVkYmFjazwvdGV4dD48cmVjdCBmaWxsPSIjRjFGMUYxIiBoZWlnaHQ9IjMyLjg0MzgiIHJ4PSIxMi41IiByeT0iMTIuNSIgc3R5bGU9InN0cm9rZTojMTgxODE4O3N0cm9rZS13aWR0aDowLjU7IiB3aWR0aD0iMTMxIiB4PSIxNTg2IiB5PSI0NzcuNzY1NiIvPjx0ZXh0IGZpbGw9IiMwMDAwMDAiIGZvbnQtZmFtaWx5PSJzYW5zLXNlcmlmIiBmb250LXNpemU9IjEyIiBsZW5ndGhBZGp1c3Q9InNwYWNpbmciIHRleHRMZW5ndGg9IjExMSIgeD0iMTU5NiIgeT0iNDk5LjEwOTQiPlNob3cgY29uZmlybWF0aW9uPC90ZXh0PjxyZWN0IGZpbGw9IiNGMUYxRjEiIGhlaWdodD0iMzIuODQzOCIgcng9IjEyLjUiIHJ5PSIxMi41IiBzdHlsZT0ic3Ryb2tlOiMxODE4MTg7c3Ryb2tlLXdpZHRoOjAuNTsiIHdpZHRoPSIxNDIiIHg9IjE4NjciIHk9IjM0Mi4wNzgxIi8+PHRleHQgZmlsbD0iIzAwMDAwMCIgZm9udC1mYW1pbHk9InNhbnMtc2VyaWYiIGZvbnQtc2l6ZT0iMTIiIGxlbmd0aEFkanVzdD0ic3BhY2luZyIgdGV4dExlbmd0aD0iMTIyIiB4PSIxODc3IiB5PSIzNjMuNDIxOSI+RmV0Y2ggbm90aWZpY2F0aW9uczwvdGV4dD48cG9seWdvbiBmaWxsPSIjRjFGMUYxIiBwb2ludHM9IjE4NjYsNDA5LjkyMTksMjAxMCw0MDkuOTIxOSwyMDIyLDQyMS45MjE5LDIwMTAsNDMzLjkyMTksMTg2Niw0MzMuOTIxOSwxODU0LDQyMS45MjE5LDE4NjYsNDA5LjkyMTkiIHN0eWxlPSJzdHJva2U6IzE4MTgxODtzdHJva2Utd2lkdGg6MC41OyIvPjx0ZXh0IGZpbGw9IiMwMDAwMDAiIGZvbnQtZmFtaWx5PSJzYW5zLXNlcmlmIiBmb250LXNpemU9IjExIiBsZW5ndGhBZGp1c3Q9InNwYWNpbmciIHRleHRMZW5ndGg9IjE0NCIgeD0iMTg2NiIgeT0iNDI2LjQzMzYiPk5vdGlmaWNhdGlvbnMgYXZhaWxhYmxlPzwvdGV4dD48dGV4dCBmaWxsPSIjMDAwMDAwIiBmb250LWZhbWlseT0ic2Fucy1zZXJpZiIgZm9udC1zaXplPSIxMSIgbGVuZ3RoQWRqdXN0PSJzcGFjaW5nIiB0ZXh0TGVuZ3RoPSIxOCIgeD0iMTgzNiIgeT0iNDIwLjU0NjkiPnllczwvdGV4dD48dGV4dCBmaWxsPSIjMDAwMDAwIiBmb250LWZhbWlseT0ic2Fucy1zZXJpZiIgZm9udC1zaXplPSIxMSIgbGVuZ3RoQWRqdXN0PSJzcGFjaW5nIiB0ZXh0TGVuZ3RoPSIxMiIgeD0iMjAyMiIgeT0iNDIwLjU0NjkiPm5vPC90ZXh0PjxyZWN0IGZpbGw9IiNGMUYxRjEiIGhlaWdodD0iMzIuODQzOCIgcng9IjEyLjUiIHJ5PSIxMi41IiBzdHlsZT0ic3Ryb2tlOiMxODE4MTg7c3Ryb2tlLXdpZHRoOjAuNTsiIHdpZHRoPSIxNTciIHg9IjE3NTcuNSIgeT0iNDQzLjkyMTkiLz48dGV4dCBmaWxsPSIjMDAwMDAwIiBmb250LWZhbWlseT0ic2Fucy1zZXJpZiIgZm9udC1zaXplPSIxMiIgbGVuZ3RoQWRqdXN0PSJzcGFjaW5nIiB0ZXh0TGVuZ3RoPSIxMzciIHg9IjE3NjcuNSIgeT0iNDY1LjI2NTYiPkRpc3BsYXkgbm90aWZpY2F0aW9uczwvdGV4dD48cmVjdCBmaWxsPSIjRjFGMUYxIiBoZWlnaHQ9IjMyLjg0MzgiIHJ4PSIxMi41IiByeT0iMTIuNSIgc3R5bGU9InN0cm9rZTojMTgxODE4O3N0cm9rZS13aWR0aDowLjU7IiB3aWR0aD0iMjExIiB4PSIxOTM0LjUiIHk9IjQ0My45MjE5Ii8+PHRleHQgZmlsbD0iIzAwMDAwMCIgZm9udC1mYW1pbHk9InNhbnMtc2VyaWYiIGZvbnQtc2l6ZT0iMTIiIGxlbmd0aEFkanVzdD0ic3BhY2luZyIgdGV4dExlbmd0aD0iMTkxIiB4PSIxOTQ0LjUiIHk9IjQ2NS4yNjU2Ij5TaG93IG5vIG5vdGlmaWNhdGlvbnMgbWVzc2FnZTwvdGV4dD48cG9seWdvbiBmaWxsPSIjRjFGMUYxIiBwb2ludHM9IjE5MzgsNDgyLjc2NTYsMTk1MCw0OTQuNzY1NiwxOTM4LDUwNi43NjU2LDE5MjYsNDk0Ljc2NTYsMTkzOCw0ODIuNzY1NiIgc3R5bGU9InN0cm9rZTojMTgxODE4O3N0cm9rZS13aWR0aDowLjU7Ii8+PHJlY3QgZmlsbD0iI0YxRjFGMSIgaGVpZ2h0PSIzMi44NDM4IiByeD0iMTIuNSIgcnk9IjEyLjUiIHN0eWxlPSJzdHJva2U6IzE4MTgxODtzdHJva2Utd2lkdGg6MC41OyIgd2lkdGg9IjE5MSIgeD0iMjI1OC41IiB5PSIzNDIuMDc4MSIvPjx0ZXh0IGZpbGw9IiMwMDAwMDAiIGZvbnQtZmFtaWx5PSJzYW5zLXNlcmlmIiBmb250LXNpemU9IjEyIiBsZW5ndGhBZGp1c3Q9InNwYWNpbmciIHRleHRMZW5ndGg9IjE3MSIgeD0iMjI2OC41IiB5PSIzNjMuNDIxOSI+VXNlciBjb21wbGV0ZXMgYSBtaWxlc3RvbmU8L3RleHQ+PHBvbHlnb24gZmlsbD0iI0YxRjFGMSIgcG9pbnRzPSIyMjkxLDQwOS45MjE5LDI0MTcsNDA5LjkyMTksMjQyOSw0MjEuOTIxOSwyNDE3LDQzMy45MjE5LDIyOTEsNDMzLjkyMTksMjI3OSw0MjEuOTIxOSwyMjkxLDQwOS45MjE5IiBzdHlsZT0ic3Ryb2tlOiMxODE4MTg7c3Ryb2tlLXdpZHRoOjAuNTsiLz48dGV4dCBmaWxsPSIjMDAwMDAwIiBmb250LWZhbWlseT0ic2Fucy1zZXJpZiIgZm9udC1zaXplPSIxMSIgbGVuZ3RoQWRqdXN0PSJzcGFjaW5nIiB0ZXh0TGVuZ3RoPSIxMjYiIHg9IjIyOTEiIHk9IjQyNi40MzM2Ij5CYWRnZSBhbHJlYWR5IGVhcm5lZD88L3RleHQ+PHRleHQgZmlsbD0iIzAwMDAwMCIgZm9udC1mYW1pbHk9InNhbnMtc2VyaWYiIGZvbnQtc2l6ZT0iMTEiIGxlbmd0aEFkanVzdD0ic3BhY2luZyIgdGV4dExlbmd0aD0iMTgiIHg9IjIyNjEiIHk9IjQyMC41NDY5Ij55ZXM8L3RleHQ+PHRleHQgZmlsbD0iIzAwMDAwMCIgZm9udC1mYW1pbHk9InNhbnMtc2VyaWYiIGZvbnQtc2l6ZT0iMTEiIGxlbmd0aEFkanVzdD0ic3BhY2luZyIgdGV4dExlbmd0aD0iMTIiIHg9IjI0MjkiIHk9IjQyMC41NDY5Ij5ubzwvdGV4dD48cmVjdCBmaWxsPSIjRjFGMUYxIiBoZWlnaHQ9IjMyLjg0MzgiIHJ4PSIxMi41IiByeT0iMTIuNSIgc3R5bGU9InN0cm9rZTojMTgxODE4O3N0cm9rZS13aWR0aDowLjU7IiB3aWR0aD0iMjAyIiB4PSIyMTU1LjUiIHk9IjQ0My45MjE5Ii8+PHRleHQgZmlsbD0iIzAwMDAwMCIgZm9udC1mYW1pbHk9InNhbnMtc2VyaWYiIGZvbnQtc2l6ZT0iMTIiIGxlbmd0aEFkanVzdD0ic3BhY2luZyIgdGV4dExlbmd0aD0iMTgyIiB4PSIyMTY1LjUiIHk9IjQ2NS4yNjU2Ij5Ob3RpZnkgYmFkZ2UgYWxyZWFkeSBlYXJuZWQ8L3RleHQ+PHJlY3QgZmlsbD0iI0YxRjFGMSIgaGVpZ2h0PSIzMi44NDM4IiByeD0iMTIuNSIgcnk9IjEyLjUiIHN0eWxlPSJzdHJva2U6IzE4MTgxODtzdHJva2Utd2lkdGg6MC41OyIgd2lkdGg9Ijk1IiB4PSIyNDA0IiB5PSI0NDMuOTIxOSIvPjx0ZXh0IGZpbGw9IiMwMDAwMDAiIGZvbnQtZmFtaWx5PSJzYW5zLXNlcmlmIiBmb250LXNpemU9IjEyIiBsZW5ndGhBZGp1c3Q9InNwYWNpbmciIHRleHRMZW5ndGg9Ijc1IiB4PSIyNDE0IiB5PSI0NjUuMjY1NiI+QXdhcmQgYmFkZ2U8L3RleHQ+PHJlY3QgZmlsbD0iI0YxRjFGMSIgaGVpZ2h0PSIzMi44NDM4IiByeD0iMTIuNSIgcnk9IjEyLjUiIHN0eWxlPSJzdHJva2U6IzE4MTgxODtzdHJva2Utd2lkdGg6MC41OyIgd2lkdGg9IjE0OCIgeD0iMjM3Ny41IiB5PSI1MTEuNzY1NiIvPjx0ZXh0IGZpbGw9IiMwMDAwMDAiIGZvbnQtZmFtaWx5PSJzYW5zLXNlcmlmIiBmb250LXNpemU9IjEyIiBsZW5ndGhBZGp1c3Q9InNwYWNpbmciIHRleHRMZW5ndGg9IjEyOCIgeD0iMjM4Ny41IiB5PSI1MzMuMTA5NCI+Tm90aWZ5IGJhZGdlIGVhcm5lZDwvdGV4dD48cG9seWdvbiBmaWxsPSIjRjFGMUYxIiBwb2ludHM9IjIzNTQsNTUwLjYwOTQsMjM2Niw1NjIuNjA5NCwyMzU0LDU3NC42MDk0LDIzNDIsNTYyLjYwOTQsMjM1NCw1NTAuNjA5NCIgc3R5bGU9InN0cm9rZTojMTgxODE4O3N0cm9rZS13aWR0aDowLjU7Ii8+PHJlY3QgZmlsbD0iI0YxRjFGMSIgaGVpZ2h0PSIzMi44NDM4IiByeD0iMTIuNSIgcnk9IjEyLjUiIHN0eWxlPSJzdHJva2U6IzE4MTgxODtzdHJva2Utd2lkdGg6MC41OyIgd2lkdGg9IjE3NiIgeD0iMjU2Ni41IiB5PSIzNDIuMDc4MSIvPjx0ZXh0IGZpbGw9IiMwMDAwMDAiIGZvbnQtZmFtaWx5PSJzYW5zLXNlcmlmIiBmb250LXNpemU9IjEyIiBsZW5ndGhBZGp1c3Q9InNwYWNpbmciIHRleHRMZW5ndGg9IjE1NiIgeD0iMjU3Ni41IiB5PSIzNjMuNDIxOSI+VXNlciBzZWxlY3RzIGNlcnRpZmljYXRlPC90ZXh0PjxyZWN0IGZpbGw9IiNGMUYxRjEiIGhlaWdodD0iMzIuODQzOCIgcng9IjEyLjUiIHJ5PSIxMi41IiBzdHlsZT0ic3Ryb2tlOiMxODE4MTg7c3Ryb2tlLXdpZHRoOjAuNTsiIHdpZHRoPSIyMzgiIHg9IjI1MzUuNSIgeT0iNDA5LjkyMTkiLz48dGV4dCBmaWxsPSIjMDAwMDAwIiBmb250LWZhbWlseT0ic2Fucy1zZXJpZiIgZm9udC1zaXplPSIxMiIgbGVuZ3RoQWRqdXN0PSJzcGFjaW5nIiB0ZXh0TGVuZ3RoPSIyMTgiIHg9IjI1NDUuNSIgeT0iNDMxLjI2NTYiPkdlbmVyYXRlIGRvd25sb2FkYWJsZSBjZXJ0aWZpY2F0ZTwvdGV4dD48cmVjdCBmaWxsPSIjRjFGMUYxIiBoZWlnaHQ9IjMyLjg0MzgiIHJ4PSIxMi41IiByeT0iMTIuNSIgc3R5bGU9InN0cm9rZTojMTgxODE4O3N0cm9rZS13aWR0aDowLjU7IiB3aWR0aD0iMTU5IiB4PSIyNTc1IiB5PSI0NzcuNzY1NiIvPjx0ZXh0IGZpbGw9IiMwMDAwMDAiIGZvbnQtZmFtaWx5PSJzYW5zLXNlcmlmIiBmb250LXNpemU9IjEyIiBsZW5ndGhBZGp1c3Q9InNwYWNpbmciIHRleHRMZW5ndGg9IjEzOSIgeD0iMjU4NSIgeT0iNDk5LjEwOTQiPlByb3ZpZGUgZG93bmxvYWQgbGluazwvdGV4dD48cmVjdCBmaWxsPSIjRjFGMUYxIiBoZWlnaHQ9IjMyLjg0MzgiIHJ4PSIxMi41IiByeT0iMTIuNSIgc3R5bGU9InN0cm9rZTojMTgxODE4O3N0cm9rZS13aWR0aDowLjU7IiB3aWR0aD0iMjExIiB4PSIyODg5LjUiIHk9IjM0Mi4wNzgxIi8+PHRleHQgZmlsbD0iIzAwMDAwMCIgZm9udC1mYW1pbHk9InNhbnMtc2VyaWYiIGZvbnQtc2l6ZT0iMTIiIGxlbmd0aEFkanVzdD0ic3BhY2luZyIgdGV4dExlbmd0aD0iMTkxIiB4PSIyODk5LjUiIHk9IjM2My40MjE5Ij5BZG1pbiByZXZpZXdzIGZsYWdnZWQgY29udGVudDwvdGV4dD48cG9seWdvbiBmaWxsPSIjRjFGMUYxIiBwb2ludHM9IjI5MjYsNDA5LjkyMTksMzA2NCw0MDkuOTIxOSwzMDc2LDQyMS45MjE5LDMwNjQsNDMzLjkyMTksMjkyNiw0MzMuOTIxOSwyOTE0LDQyMS45MjE5LDI5MjYsNDA5LjkyMTkiIHN0eWxlPSJzdHJva2U6IzE4MTgxODtzdHJva2Utd2lkdGg6MC41OyIvPjx0ZXh0IGZpbGw9IiMwMDAwMDAiIGZvbnQtZmFtaWx5PSJzYW5zLXNlcmlmIiBmb250LXNpemU9IjExIiBsZW5ndGhBZGp1c3Q9InNwYWNpbmciIHRleHRMZW5ndGg9IjEzOCIgeD0iMjkyNiIgeT0iNDI2LjQzMzYiPkZsYWdnZWQgY29udGVudCBleGlzdHM/PC90ZXh0Pjx0ZXh0IGZpbGw9IiMwMDAwMDAiIGZvbnQtZmFtaWx5PSJzYW5zLXNlcmlmIiBmb250LXNpemU9IjExIiBsZW5ndGhBZGp1c3Q9InNwYWNpbmciIHRleHRMZW5ndGg9IjE4IiB4PSIyODk2IiB5PSI0MjAuNTQ2OSI+eWVzPC90ZXh0Pjx0ZXh0IGZpbGw9IiMwMDAwMDAiIGZvbnQtZmFtaWx5PSJzYW5zLXNlcmlmIiBmb250LXNpemU9IjExIiBsZW5ndGhBZGp1c3Q9InNwYWNpbmciIHRleHRMZW5ndGg9IjEyIiB4PSIzMDc2IiB5PSI0MjAuNTQ2OSI+bm88L3RleHQ+PHJlY3QgZmlsbD0iI0YxRjFGMSIgaGVpZ2h0PSIzMi44NDM4IiByeD0iMTIuNSIgcnk9IjEyLjUiIHN0eWxlPSJzdHJva2U6IzE4MTgxODtzdHJva2Utd2lkdGg6MC41OyIgd2lkdGg9IjIxMCIgeD0iMjc4NC41IiB5PSI0NDMuOTIxOSIvPjx0ZXh0IGZpbGw9IiMwMDAwMDAiIGZvbnQtZmFtaWx5PSJzYW5zLXNlcmlmIiBmb250LXNpemU9IjEyIiBsZW5ndGhBZGp1c3Q9InNwYWNpbmciIHRleHRMZW5ndGg9IjE5MCIgeD0iMjc5NC41IiB5PSI0NjUuMjY1NiI+QWRtaW4gdGFrZXMgbW9kZXJhdGlvbiBhY3Rpb248L3RleHQ+PHJlY3QgZmlsbD0iI0YxRjFGMSIgaGVpZ2h0PSIzMi44NDM4IiByeD0iMTIuNSIgcnk9IjEyLjUiIHN0eWxlPSJzdHJva2U6IzE4MTgxODtzdHJva2Utd2lkdGg6MC41OyIgd2lkdGg9IjE1OSIgeD0iMjgxMCIgeT0iNTExLjc2NTYiLz48dGV4dCBmaWxsPSIjMDAwMDAwIiBmb250LWZhbWlseT0ic2Fucy1zZXJpZiIgZm9udC1zaXplPSIxMiIgbGVuZ3RoQWRqdXN0PSJzcGFjaW5nIiB0ZXh0TGVuZ3RoPSIxMzkiIHg9IjI4MjAiIHk9IjUzMy4xMDk0Ij5VcGRhdGUgY29udGVudCBzdGF0dXM8L3RleHQ+PHJlY3QgZmlsbD0iI0YxRjFGMSIgaGVpZ2h0PSIzMi44NDM4IiByeD0iMTIuNSIgcnk9IjEyLjUiIHN0eWxlPSJzdHJva2U6IzE4MTgxODtzdHJva2Utd2lkdGg6MC41OyIgd2lkdGg9IjE4NSIgeD0iMjc5NyIgeT0iNTc5LjYwOTQiLz48dGV4dCBmaWxsPSIjMDAwMDAwIiBmb250LWZhbWlseT0ic2Fucy1zZXJpZiIgZm9udC1zaXplPSIxMiIgbGVuZ3RoQWRqdXN0PSJzcGFjaW5nIiB0ZXh0TGVuZ3RoPSIxNjUiIHg9IjI4MDciIHk9IjYwMC45NTMxIj5Ob3RpZnkgbW9kZXJhdGlvbiBzdWNjZXNzPC90ZXh0PjxyZWN0IGZpbGw9IiNGMUYxRjEiIGhlaWdodD0iMzIuODQzOCIgcng9IjEyLjUiIHJ5PSIxMi41IiBzdHlsZT0ic3Ryb2tlOiMxODE4MTg7c3Ryb2tlLXdpZHRoOjAuNTsiIHdpZHRoPSIxNzIiIHg9IjMwMTQuNSIgeT0iNDQzLjkyMTkiLz48dGV4dCBmaWxsPSIjMDAwMDAwIiBmb250LWZhbWlseT0ic2Fucy1zZXJpZiIgZm9udC1zaXplPSIxMiIgbGVuZ3RoQWRqdXN0PSJzcGFjaW5nIiB0ZXh0TGVuZ3RoPSIxNTIiIHg9IjMwMjQuNSIgeT0iNDY1LjI2NTYiPlNob3cgbm8gZmxhZ2dlZCBjb250ZW50PC90ZXh0Pjxwb2x5Z29uIGZpbGw9IiNGMUYxRjEiIHBvaW50cz0iMjk5NSw2MTguNDUzMSwzMDA3LDYzMC40NTMxLDI5OTUsNjQyLjQ1MzEsMjk4Myw2MzAuNDUzMSwyOTk1LDYxOC40NTMxIiBzdHlsZT0ic3Ryb2tlOiMxODE4MTg7c3Ryb2tlLXdpZHRoOjAuNTsiLz48cmVjdCBmaWxsPSIjRjFGMUYxIiBoZWlnaHQ9IjMyLjg0MzgiIHJ4PSIxMi41IiByeT0iMTIuNSIgc3R5bGU9InN0cm9rZTojMTgxODE4O3N0cm9rZS13aWR0aDowLjU7IiB3aWR0aD0iMjI2IiB4PSIzMTk2LjUiIHk9IjM0Mi4wNzgxIi8+PHRleHQgZmlsbD0iIzAwMDAwMCIgZm9udC1mYW1pbHk9InNhbnMtc2VyaWYiIGZvbnQtc2l6ZT0iMTIiIGxlbmd0aEFkanVzdD0ic3BhY2luZyIgdGV4dExlbmd0aD0iMjA2IiB4PSIzMjA2LjUiIHk9IjM2My40MjE5Ij5BZG1pbiByZXF1ZXN0cyBhbmFseXRpY3MgcmVwb3J0PC90ZXh0PjxyZWN0IGZpbGw9IiNGMUYxRjEiIGhlaWdodD0iMzIuODQzOCIgcng9IjEyLjUiIHJ5PSIxMi41IiBzdHlsZT0ic3Ryb2tlOiMxODE4MTg7c3Ryb2tlLXdpZHRoOjAuNTsiIHdpZHRoPSIxNzMiIHg9IjMyMjMiIHk9IjQwOS45MjE5Ii8+PHRleHQgZmlsbD0iIzAwMDAwMCIgZm9udC1mYW1pbHk9InNhbnMtc2VyaWYiIGZvbnQtc2l6ZT0iMTIiIGxlbmd0aEFkanVzdD0ic3BhY2luZyIgdGV4dExlbmd0aD0iMTUzIiB4PSIzMjMzIiB5PSI0MzEuMjY1NiI+R2VuZXJhdGUgYW5hbHl0aWNzIGRhdGE8L3RleHQ+PHJlY3QgZmlsbD0iI0YxRjFGMSIgaGVpZ2h0PSIzMi44NDM4IiByeD0iMTIuNSIgcnk9IjEyLjUiIHN0eWxlPSJzdHJva2U6IzE4MTgxODtzdHJva2Utd2lkdGg6MC41OyIgd2lkdGg9IjE3OSIgeD0iMzIyMCIgeT0iNDc3Ljc2NTYiLz48dGV4dCBmaWxsPSIjMDAwMDAwIiBmb250LWZhbWlseT0ic2Fucy1zZXJpZiIgZm9udC1zaXplPSIxMiIgbGVuZ3RoQWRqdXN0PSJzcGFjaW5nIiB0ZXh0TGVuZ3RoPSIxNTkiIHg9IjMyMzAiIHk9IjQ5OS4xMDk0Ij5EaXNwbGF5IGFuYWx5dGljcyByZXBvcnQ8L3RleHQ+PHJlY3QgZmlsbD0iI0YxRjFGMSIgaGVpZ2h0PSIzMi44NDM4IiByeD0iMTIuNSIgcnk9IjEyLjUiIHN0eWxlPSJzdHJva2U6IzE4MTgxODtzdHJva2Utd2lkdGg6MC41OyIgd2lkdGg9IjE5NCIgeD0iMzU2NS41IiB5PSIzNDIuMDc4MSIvPjx0ZXh0IGZpbGw9IiMwMDAwMDAiIGZvbnQtZmFtaWx5PSJzYW5zLXNlcmlmIiBmb250LXNpemU9IjEyIiBsZW5ndGhBZGp1c3Q9InNwYWNpbmciIHRleHRMZW5ndGg9IjE3NCIgeD0iMzU3NS41IiB5PSIzNjMuNDIxOSI+VXNlciBzdWJtaXRzIHJlc2V0IHJlcXVlc3Q8L3RleHQ+PHBvbHlnb24gZmlsbD0iI0YxRjFGMSIgcG9pbnRzPSIzNjIzLjUsNDA5LjkyMTksMzcwMS41LDQwOS45MjE5LDM3MTMuNSw0MjEuOTIxOSwzNzAxLjUsNDMzLjkyMTksMzYyMy41LDQzMy45MjE5LDM2MTEuNSw0MjEuOTIxOSwzNjIzLjUsNDA5LjkyMTkiIHN0eWxlPSJzdHJva2U6IzE4MTgxODtzdHJva2Utd2lkdGg6MC41OyIvPjx0ZXh0IGZpbGw9IiMwMDAwMDAiIGZvbnQtZmFtaWx5PSJzYW5zLXNlcmlmIiBmb250LXNpemU9IjExIiBsZW5ndGhBZGp1c3Q9InNwYWNpbmciIHRleHRMZW5ndGg9Ijc4IiB4PSIzNjIzLjUiIHk9IjQyNi40MzM2Ij5FbWFpbCBleGlzdHM/PC90ZXh0Pjx0ZXh0IGZpbGw9IiMwMDAwMDAiIGZvbnQtZmFtaWx5PSJzYW5zLXNlcmlmIiBmb250LXNpemU9IjExIiBsZW5ndGhBZGp1c3Q9InNwYWNpbmciIHRleHRMZW5ndGg9IjE4IiB4PSIzNTkzLjUiIHk9IjQyMC41NDY5Ij55ZXM8L3RleHQ+PHRleHQgZmlsbD0iIzAwMDAwMCIgZm9udC1mYW1pbHk9InNhbnMtc2VyaWYiIGZvbnQtc2l6ZT0iMTEiIGxlbmd0aEFkanVzdD0ic3BhY2luZyIgdGV4dExlbmd0aD0iMTIiIHg9IjM3MTMuNSIgeT0iNDIwLjU0NjkiPm5vPC90ZXh0PjxyZWN0IGZpbGw9IiNGMUYxRjEiIGhlaWdodD0iMzIuODQzOCIgcng9IjEyLjUiIHJ5PSIxMi41IiBzdHlsZT0ic3Ryb2tlOiMxODE4MTg7c3Ryb2tlLXdpZHRoOjAuNTsiIHdpZHRoPSIxMTkiIHg9IjM0OTgiIHk9IjQ0My45MjE5Ii8+PHRleHQgZmlsbD0iIzAwMDAwMCIgZm9udC1mYW1pbHk9InNhbnMtc2VyaWYiIGZvbnQtc2l6ZT0iMTIiIGxlbmd0aEFkanVzdD0ic3BhY2luZyIgdGV4dExlbmd0aD0iOTkiIHg9IjM1MDgiIHk9IjQ2NS4yNjU2Ij5TZW5kIHJlc2V0IGxpbms8L3RleHQ+PHJlY3QgZmlsbD0iI0YxRjFGMSIgaGVpZ2h0PSIzMi44NDM4IiByeD0iMTIuNSIgcnk9IjEyLjUiIHN0eWxlPSJzdHJva2U6IzE4MTgxODtzdHJva2Utd2lkdGg6MC41OyIgd2lkdGg9IjE4OCIgeD0iMzQ2My41IiB5PSI1MTEuNzY1NiIvPjx0ZXh0IGZpbGw9IiMwMDAwMDAiIGZvbnQtZmFtaWx5PSJzYW5zLXNlcmlmIiBmb250LXNpemU9IjEyIiBsZW5ndGhBZGp1c3Q9InNwYWNpbmciIHRleHRMZW5ndGg9IjE2OCIgeD0iMzQ3My41IiB5PSI1MzMuMTA5NCI+Tm90aWZ5IHVzZXIgdG8gY2hlY2sgZW1haWw8L3RleHQ+PHJlY3QgZmlsbD0iI0YxRjFGMSIgaGVpZ2h0PSIzMi44NDM4IiByeD0iMTIuNSIgcnk9IjEyLjUiIHN0eWxlPSJzdHJva2U6IzE4MTgxODtzdHJva2Utd2lkdGg6MC41OyIgd2lkdGg9IjE5MiIgeD0iMzY3MS41IiB5PSI0NDMuOTIxOSIvPjx0ZXh0IGZpbGw9IiMwMDAwMDAiIGZvbnQtZmFtaWx5PSJzYW5zLXNlcmlmIiBmb250LXNpemU9IjEyIiBsZW5ndGhBZGp1c3Q9InNwYWNpbmciIHRleHRMZW5ndGg9IjE3MiIgeD0iMzY4MS41IiB5PSI0NjUuMjY1NiI+U2hvdyBlbWFpbCBub3QgZm91bmQgZXJyb3I8L3RleHQ+PHBvbHlnb24gZmlsbD0iI0YxRjFGMSIgcG9pbnRzPSIzNjYyLjUsNTUwLjYwOTQsMzY3NC41LDU2Mi42MDk0LDM2NjIuNSw1NzQuNjA5NCwzNjUwLjUsNTYyLjYwOTQsMzY2Mi41LDU1MC42MDk0IiBzdHlsZT0ic3Ryb2tlOiMxODE4MTg7c3Ryb2tlLXdpZHRoOjAuNTsiLz48cG9seWdvbiBmaWxsPSIjRjFGMUYxIiBwb2ludHM9IjE5NDIuMjUsNzE5LjE0MDYsMTk0Mi4yNSw3MTkuMTQwNiwxOTU0LjI1LDczMS4xNDA2LDE5NDIuMjUsNzQzLjE0MDYsMTk0Mi4yNSw3NDMuMTQwNiwxOTMwLjI1LDczMS4xNDA2LDE5NDIuMjUsNzE5LjE0MDYiIHN0eWxlPSJzdHJva2U6IzE4MTgxODtzdHJva2Utd2lkdGg6MC41OyIvPjxyZWN0IGZpbGw9IiNGMUYxRjEiIGhlaWdodD0iMzIuODQzOCIgcng9IjEyLjUiIHJ5PSIxMi41IiBzdHlsZT0ic3Ryb2tlOiMxODE4MTg7c3Ryb2tlLXdpZHRoOjAuNTsiIHdpZHRoPSIxMDciIHg9IjE4ODguNzUiIHk9Ijc2My4xNDA2Ii8+PHRleHQgZmlsbD0iIzAwMDAwMCIgZm9udC1mYW1pbHk9InNhbnMtc2VyaWYiIGZvbnQtc2l6ZT0iMTIiIGxlbmd0aEFkanVzdD0ic3BhY2luZyIgdGV4dExlbmd0aD0iODciIHg9IjE4OTguNzUiIHk9Ijc4NC40ODQ0Ij5Vc2VyIGxvZ3Mgb3V0PC90ZXh0PjxlbGxpcHNlIGN4PSIxOTQyLjI1IiBjeT0iODI2Ljk4NDQiIGZpbGw9Im5vbmUiIHJ4PSIxMSIgcnk9IjExIiBzdHlsZT0ic3Ryb2tlOiMyMjIyMjI7c3Ryb2tlLXdpZHRoOjEuMDsiLz48ZWxsaXBzZSBjeD0iMTk0Mi4yNSIgY3k9IjgyNi45ODQ0IiBmaWxsPSIjMjIyMjIyIiByeD0iNiIgcnk9IjYiIHN0eWxlPSJzdHJva2U6IzIyMjIyMjtzdHJva2Utd2lkdGg6MS4wOyIvPjxsaW5lIHN0eWxlPSJzdHJva2U6IzE4MTgxODtzdHJva2Utd2lkdGg6MS4wOyIgeDE9IjE5NDIuMjUiIHgyPSIxOTQyLjI1IiB5MT0iMzAiIHkyPSI1MCIvPjxwb2x5Z29uIGZpbGw9IiMxODE4MTgiIHBvaW50cz0iMTkzOC4yNSw0MCwxOTQyLjI1LDUwLDE5NDYuMjUsNDAsMTk0Mi4yNSw0NCIgc3R5bGU9InN0cm9rZTojMTgxODE4O3N0cm9rZS13aWR0aDoxLjA7Ii8+PGxpbmUgc3R5bGU9InN0cm9rZTojMTgxODE4O3N0cm9rZS13aWR0aDoxLjA7IiB4MT0iMjAyMS41IiB4Mj0iMjAyMS41IiB5MT0iMTY5LjY4NzUiIHkyPSIxODkuNjg3NSIvPjxwb2x5Z29uIGZpbGw9IiMxODE4MTgiIHBvaW50cz0iMjAxNy41LDE3OS42ODc1LDIwMjEuNSwxODkuNjg3NSwyMDI1LjUsMTc5LjY4NzUsMjAyMS41LDE4My42ODc1IiBzdHlsZT0ic3Ryb2tlOiMxODE4MTg7c3Ryb2tlLXdpZHRoOjEuMDsiLz48bGluZSBzdHlsZT0ic3Ryb2tlOiMxODE4MTg7c3Ryb2tlLXdpZHRoOjEuMDsiIHgxPSIxODc2LjI1IiB4Mj0iMTg2MyIgeTE9IjExNC44NDM4IiB5Mj0iMTE0Ljg0MzgiLz48bGluZSBzdHlsZT0ic3Ryb2tlOiMxODE4MTg7c3Ryb2tlLXdpZHRoOjEuMDsiIHgxPSIxODYzIiB4Mj0iMTg2MyIgeTE9IjExNC44NDM4IiB5Mj0iMTM2Ljg0MzgiLz48cG9seWdvbiBmaWxsPSIjMTgxODE4IiBwb2ludHM9IjE4NTksMTI2Ljg0MzgsMTg2MywxMzYuODQzOCwxODY3LDEyNi44NDM4LDE4NjMsMTMwLjg0MzgiIHN0eWxlPSJzdHJva2U6IzE4MTgxODtzdHJva2Utd2lkdGg6MS4wOyIvPjxsaW5lIHN0eWxlPSJzdHJva2U6IzE4MTgxODtzdHJva2Utd2lkdGg6MS4wOyIgeDE9IjIwMDguMjUiIHgyPSIyMDIxLjUiIHkxPSIxMTQuODQzOCIgeTI9IjExNC44NDM4Ii8+PGxpbmUgc3R5bGU9InN0cm9rZTojMTgxODE4O3N0cm9rZS13aWR0aDoxLjA7IiB4MT0iMjAyMS41IiB4Mj0iMjAyMS41IiB5MT0iMTE0Ljg0MzgiIHkyPSIxMzYuODQzOCIvPjxwb2x5Z29uIGZpbGw9IiMxODE4MTgiIHBvaW50cz0iMjAxNy41LDEyNi44NDM4LDIwMjEuNSwxMzYuODQzOCwyMDI1LjUsMTI2Ljg0MzgsMjAyMS41LDEzMC44NDM4IiBzdHlsZT0ic3Ryb2tlOiMxODE4MTg7c3Ryb2tlLXdpZHRoOjEuMDsiLz48bGluZSBzdHlsZT0ic3Ryb2tlOiMxODE4MTg7c3Ryb2tlLXdpZHRoOjEuMDsiIHgxPSIxODYzIiB4Mj0iMTg2MyIgeTE9IjE2OS42ODc1IiB5Mj0iMjE2LjY4NzUiLz48bGluZSBzdHlsZT0ic3Ryb2tlOiMxODE4MTg7c3Ryb2tlLXdpZHRoOjEuMDsiIHgxPSIxODYzIiB4Mj0iMTk0Mi4yNSIgeTE9IjIxNi42ODc1IiB5Mj0iMjE2LjY4NzUiLz48bGluZSBzdHlsZT0ic3Ryb2tlOiMxODE4MTg7c3Ryb2tlLXdpZHRoOjEuMDsiIHgxPSIxOTQyLjI1IiB4Mj0iMTk0Mi4yNSIgeTE9IjIxNi42ODc1IiB5Mj0iMjMxLjY4NzUiLz48cG9seWdvbiBmaWxsPSIjMTgxODE4IiBwb2ludHM9IjE5MzguMjUsMjIxLjY4NzUsMTk0Mi4yNSwyMzEuNjg3NSwxOTQ2LjI1LDIyMS42ODc1LDE5NDIuMjUsMjI1LjY4NzUiIHN0eWxlPSJzdHJva2U6IzE4MTgxODtzdHJva2Utd2lkdGg6MS4wOyIvPjxsaW5lIHN0eWxlPSJzdHJva2U6IzE4MTgxODtzdHJva2Utd2lkdGg6MS4wOyIgeDE9IjE5NDIuMjUiIHgyPSIxOTQyLjI1IiB5MT0iODIuODQzOCIgeTI9IjEwMi44NDM4Ii8+PHBvbHlnb24gZmlsbD0iIzE4MTgxOCIgcG9pbnRzPSIxOTM4LjI1LDkyLjg0MzgsMTk0Mi4yNSwxMDIuODQzOCwxOTQ2LjI1LDkyLjg0MzgsMTk0Mi4yNSw5Ni44NDM4IiBzdHlsZT0ic3Ryb2tlOiMxODE4MTg7c3Ryb2tlLXdpZHRoOjEuMDsiLz48bGluZSBzdHlsZT0ic3Ryb2tlOiMxODE4MTg7c3Ryb2tlLXdpZHRoOjEuMDsiIHgxPSIxMTkiIHgyPSIxMTkiIHkxPSIzNzQuOTIxOSIgeTI9IjQwOS45MjE5Ii8+PHBvbHlnb24gZmlsbD0iIzE4MTgxOCIgcG9pbnRzPSIxMTUsMzk5LjkyMTksMTE5LDQwOS45MjE5LDEyMywzOTkuOTIxOSwxMTksNDAzLjkyMTkiIHN0eWxlPSJzdHJva2U6IzE4MTgxODtzdHJva2Utd2lkdGg6MS4wOyIvPjxsaW5lIHN0eWxlPSJzdHJva2U6IzE4MTgxODtzdHJva2Utd2lkdGg6MS4wOyIgeDE9IjExOSIgeDI9IjExOSIgeTE9IjQ0Mi43NjU2IiB5Mj0iNDc3Ljc2NTYiLz48cG9seWdvbiBmaWxsPSIjMTgxODE4IiBwb2ludHM9IjExNSw0NjcuNzY1NiwxMTksNDc3Ljc2NTYsMTIzLDQ2Ny43NjU2LDExOSw0NzEuNzY1NiIgc3R5bGU9InN0cm9rZTojMTgxODE4O3N0cm9rZS13aWR0aDoxLjA7Ii8+PGxpbmUgc3R5bGU9InN0cm9rZTojMTgxODE4O3N0cm9rZS13aWR0aDoxLjA7IiB4MT0iMTE5IiB4Mj0iMTE5IiB5MT0iNTEwLjYwOTQiIHkyPSI1NDUuNjA5NCIvPjxwb2x5Z29uIGZpbGw9IiMxODE4MTgiIHBvaW50cz0iMTE1LDUzNS42MDk0LDExOSw1NDUuNjA5NCwxMjMsNTM1LjYwOTQsMTE5LDUzOS42MDk0IiBzdHlsZT0ic3Ryb2tlOiMxODE4MTg7c3Ryb2tlLXdpZHRoOjEuMDsiLz48bGluZSBzdHlsZT0ic3Ryb2tlOiMxODE4MTg7c3Ryb2tlLXdpZHRoOjEuMDsiIHgxPSIxMTkiIHgyPSIxMTkiIHkxPSI1NzguNDUzMSIgeTI9IjYxMy40NTMxIi8+PHBvbHlnb24gZmlsbD0iIzE4MTgxOCIgcG9pbnRzPSIxMTUsNjAzLjQ1MzEsMTE5LDYxMy40NTMxLDEyMyw2MDMuNDUzMSwxMTksNjA3LjQ1MzEiIHN0eWxlPSJzdHJva2U6IzE4MTgxODtzdHJva2Utd2lkdGg6MS4wOyIvPjxsaW5lIHN0eWxlPSJzdHJva2U6IzE4MTgxODtzdHJva2Utd2lkdGg6MS4wOyIgeDE9IjExOSIgeDI9IjExOSIgeTE9IjY0Ni4yOTY5IiB5Mj0iNjY2LjI5NjkiLz48cG9seWdvbiBmaWxsPSIjMTgxODE4IiBwb2ludHM9IjExNSw2NTYuMjk2OSwxMTksNjY2LjI5NjksMTIzLDY1Ni4yOTY5LDExOSw2NjAuMjk2OSIgc3R5bGU9InN0cm9rZTojMTgxODE4O3N0cm9rZS13aWR0aDoxLjA7Ii8+PGxpbmUgc3R5bGU9InN0cm9rZTojMTgxODE4O3N0cm9rZS13aWR0aDoxLjA7IiB4MT0iMzQ1IiB4Mj0iMzQ1IiB5MT0iNDA4LjkyMTkiIHkyPSI0NDMuOTIxOSIvPjxwb2x5Z29uIGZpbGw9IiMxODE4MTgiIHBvaW50cz0iMzQxLDQzMy45MjE5LDM0NSw0NDMuOTIxOSwzNDksNDMzLjkyMTksMzQ1LDQzNy45MjE5IiBzdHlsZT0ic3Ryb2tlOiMxODE4MTg7c3Ryb2tlLXdpZHRoOjEuMDsiLz48bGluZSBzdHlsZT0ic3Ryb2tlOiMxODE4MTg7c3Ryb2tlLXdpZHRoOjEuMDsiIHgxPSIzNDUiIHgyPSIzNDUiIHkxPSI0NzYuNzY1NiIgeTI9IjUxMS43NjU2Ii8+PHBvbHlnb24gZmlsbD0iIzE4MTgxOCIgcG9pbnRzPSIzNDEsNTAxLjc2NTYsMzQ1LDUxMS43NjU2LDM0OSw1MDEuNzY1NiwzNDUsNTA1Ljc2NTYiIHN0eWxlPSJzdHJva2U6IzE4MTgxODtzdHJva2Utd2lkdGg6MS4wOyIvPjxsaW5lIHN0eWxlPSJzdHJva2U6IzE4MTgxODtzdHJva2Utd2lkdGg6MS4wOyIgeDE9IjM5NCIgeDI9IjM0NSIgeTE9IjM1NC4wNzgxIiB5Mj0iMzU0LjA3ODEiLz48bGluZSBzdHlsZT0ic3Ryb2tlOiMxODE4MTg7c3Ryb2tlLXdpZHRoOjEuMDsiIHgxPSIzNDUiIHgyPSIzNDUiIHkxPSIzNTQuMDc4MSIgeTI9IjM3Ni4wNzgxIi8+PHBvbHlnb24gZmlsbD0iIzE4MTgxOCIgcG9pbnRzPSIzNDEsMzY2LjA3ODEsMzQ1LDM3Ni4wNzgxLDM0OSwzNjYuMDc4MSwzNDUsMzcwLjA3ODEiIHN0eWxlPSJzdHJva2U6IzE4MTgxODtzdHJva2Utd2lkdGg6MS4wOyIvPjxsaW5lIHN0eWxlPSJzdHJva2U6IzE4MTgxODtzdHJva2Utd2lkdGg6MS4wOyIgeDE9IjU1MCIgeDI9IjU5OSIgeTE9IjM1NC4wNzgxIiB5Mj0iMzU0LjA3ODEiLz48bGluZSBzdHlsZT0ic3Ryb2tlOiMxODE4MTg7c3Ryb2tlLXdpZHRoOjEuMDsiIHgxPSI1OTkiIHgyPSI1OTkiIHkxPSIzNTQuMDc4MSIgeTI9IjM3Ni4wNzgxIi8+PHBvbHlnb24gZmlsbD0iIzE4MTgxOCIgcG9pbnRzPSI1OTUsMzY2LjA3ODEsNTk5LDM3Ni4wNzgxLDYwMywzNjYuMDc4MSw1OTksMzcwLjA3ODEiIHN0eWxlPSJzdHJva2U6IzE4MTgxODtzdHJva2Utd2lkdGg6MS4wOyIvPjxsaW5lIHN0eWxlPSJzdHJva2U6IzE4MTgxODtzdHJva2Utd2lkdGg6MS4wOyIgeDE9IjM0NSIgeDI9IjM0NSIgeTE9IjU0NC42MDk0IiB5Mj0iNTYyLjYwOTQiLz48bGluZSBzdHlsZT0ic3Ryb2tlOiMxODE4MTg7c3Ryb2tlLXdpZHRoOjEuMDsiIHgxPSIzNDUiIHgyPSI0NjAiIHkxPSI1NjIuNjA5NCIgeTI9IjU2Mi42MDk0Ii8+PHBvbHlnb24gZmlsbD0iIzE4MTgxOCIgcG9pbnRzPSI0NTAsNTU4LjYwOTQsNDYwLDU2Mi42MDk0LDQ1MCw1NjYuNjA5NCw0NTQsNTYyLjYwOTQiIHN0eWxlPSJzdHJva2U6IzE4MTgxODtzdHJva2Utd2lkdGg6MS4wOyIvPjxsaW5lIHN0eWxlPSJzdHJva2U6IzE4MTgxODtzdHJva2Utd2lkdGg6MS4wOyIgeDE9IjU5OSIgeDI9IjU5OSIgeTE9IjQwOC45MjE5IiB5Mj0iNTYyLjYwOTQiLz48bGluZSBzdHlsZT0ic3Ryb2tlOiMxODE4MTg7c3Ryb2tlLXdpZHRoOjEuMDsiIHgxPSI1OTkiIHgyPSI0ODQiIHkxPSI1NjIuNjA5NCIgeTI9IjU2Mi42MDk0Ii8+PHBvbHlnb24gZmlsbD0iIzE4MTgxOCIgcG9pbnRzPSI0OTQsNTU4LjYwOTQsNDg0LDU2Mi42MDk0LDQ5NCw1NjYuNjA5NCw0OTAsNTYyLjYwOTQiIHN0eWxlPSJzdHJva2U6IzE4MTgxODtzdHJva2Utd2lkdGg6MS4wOyIvPjxsaW5lIHN0eWxlPSJzdHJva2U6IzE4MTgxODtzdHJva2Utd2lkdGg6MS4wOyIgeDE9IjgyMy41IiB4Mj0iODIzLjUiIHkxPSIzNzQuOTIxOSIgeTI9IjQwOS45MjE5Ii8+PHBvbHlnb24gZmlsbD0iIzE4MTgxOCIgcG9pbnRzPSI4MTkuNSwzOTkuOTIxOSw4MjMuNSw0MDkuOTIxOSw4MjcuNSwzOTkuOTIxOSw4MjMuNSw0MDMuOTIxOSIgc3R5bGU9InN0cm9rZTojMTgxODE4O3N0cm9rZS13aWR0aDoxLjA7Ii8+PGxpbmUgc3R5bGU9InN0cm9rZTojMTgxODE4O3N0cm9rZS13aWR0aDoxLjA7IiB4MT0iODIzLjUiIHgyPSI4MjMuNSIgeTE9IjQ0Mi43NjU2IiB5Mj0iNDc3Ljc2NTYiLz48cG9seWdvbiBmaWxsPSIjMTgxODE4IiBwb2ludHM9IjgxOS41LDQ2Ny43NjU2LDgyMy41LDQ3Ny43NjU2LDgyNy41LDQ2Ny43NjU2LDgyMy41LDQ3MS43NjU2IiBzdHlsZT0ic3Ryb2tlOiMxODE4MTg7c3Ryb2tlLXdpZHRoOjEuMDsiLz48bGluZSBzdHlsZT0ic3Ryb2tlOiMxODE4MTg7c3Ryb2tlLXdpZHRoOjEuMDsiIHgxPSI4MjMuNSIgeDI9IjgyMy41IiB5MT0iNTEwLjYwOTQiIHkyPSI1NDUuNjA5NCIvPjxwb2x5Z29uIGZpbGw9IiMxODE4MTgiIHBvaW50cz0iODE5LjUsNTM1LjYwOTQsODIzLjUsNTQ1LjYwOTQsODI3LjUsNTM1LjYwOTQsODIzLjUsNTM5LjYwOTQiIHN0eWxlPSJzdHJva2U6IzE4MTgxODtzdHJva2Utd2lkdGg6MS4wOyIvPjxsaW5lIHN0eWxlPSJzdHJva2U6IzE4MTgxODtzdHJva2Utd2lkdGg6MS4wOyIgeDE9IjgyMy41IiB4Mj0iODIzLjUiIHkxPSI1NzguNDUzMSIgeTI9IjYxMy40NTMxIi8+PHBvbHlnb24gZmlsbD0iIzE4MTgxOCIgcG9pbnRzPSI4MTkuNSw2MDMuNDUzMSw4MjMuNSw2MTMuNDUzMSw4MjcuNSw2MDMuNDUzMSw4MjMuNSw2MDcuNDUzMSIgc3R5bGU9InN0cm9rZTojMTgxODE4O3N0cm9rZS13aWR0aDoxLjA7Ii8+PGxpbmUgc3R5bGU9InN0cm9rZTojMTgxODE4O3N0cm9rZS13aWR0aDoxLjA7IiB4MT0iMTA0Ni43NSIgeDI9IjEwMTMiIHkxPSI0MjEuOTIxOSIgeTI9IjQyMS45MjE5Ii8+PGxpbmUgc3R5bGU9InN0cm9rZTojMTgxODE4O3N0cm9rZS13aWR0aDoxLjA7IiB4MT0iMTAxMyIgeDI9IjEwMTMiIHkxPSI0MjEuOTIxOSIgeTI9IjQ0My45MjE5Ii8+PHBvbHlnb24gZmlsbD0iIzE4MTgxOCIgcG9pbnRzPSIxMDA5LDQzMy45MjE5LDEwMTMsNDQzLjkyMTksMTAxNyw0MzMuOTIxOSwxMDEzLDQzNy45MjE5IiBzdHlsZT0ic3Ryb2tlOiMxODE4MTg7c3Ryb2tlLXdpZHRoOjEuMDsiLz48bGluZSBzdHlsZT0ic3Ryb2tlOiMxODE4MTg7c3Ryb2tlLXdpZHRoOjEuMDsiIHgxPSIxMTkwLjc1IiB4Mj0iMTIyNC41IiB5MT0iNDIxLjkyMTkiIHkyPSI0MjEuOTIxOSIvPjxsaW5lIHN0eWxlPSJzdHJva2U6IzE4MTgxODtzdHJva2Utd2lkdGg6MS4wOyIgeDE9IjEyMjQuNSIgeDI9IjEyMjQuNSIgeTE9IjQyMS45MjE5IiB5Mj0iNDQzLjkyMTkiLz48cG9seWdvbiBmaWxsPSIjMTgxODE4IiBwb2ludHM9IjEyMjAuNSw0MzMuOTIxOSwxMjI0LjUsNDQzLjkyMTksMTIyOC41LDQzMy45MjE5LDEyMjQuNSw0MzcuOTIxOSIgc3R5bGU9InN0cm9rZTojMTgxODE4O3N0cm9rZS13aWR0aDoxLjA7Ii8+PGxpbmUgc3R5bGU9InN0cm9rZTojMTgxODE4O3N0cm9rZS13aWR0aDoxLjA7IiB4MT0iMTAxMyIgeDI9IjEwMTMiIHkxPSI0NzYuNzY1NiIgeTI9IjQ5NC43NjU2Ii8+PGxpbmUgc3R5bGU9InN0cm9rZTojMTgxODE4O3N0cm9rZS13aWR0aDoxLjA7IiB4MT0iMTAxMyIgeDI9IjExMDYuNzUiIHkxPSI0OTQuNzY1NiIgeTI9IjQ5NC43NjU2Ii8+PHBvbHlnb24gZmlsbD0iIzE4MTgxOCIgcG9pbnRzPSIxMDk2Ljc1LDQ5MC43NjU2LDExMDYuNzUsNDk0Ljc2NTYsMTA5Ni43NSw0OTguNzY1NiwxMTAwLjc1LDQ5NC43NjU2IiBzdHlsZT0ic3Ryb2tlOiMxODE4MTg7c3Ryb2tlLXdpZHRoOjEuMDsiLz48bGluZSBzdHlsZT0ic3Ryb2tlOiMxODE4MTg7c3Ryb2tlLXdpZHRoOjEuMDsiIHgxPSIxMjI0LjUiIHgyPSIxMjI0LjUiIHkxPSI0NzYuNzY1NiIgeTI9IjQ5NC43NjU2Ii8+PGxpbmUgc3R5bGU9InN0cm9rZTojMTgxODE4O3N0cm9rZS13aWR0aDoxLjA7IiB4MT0iMTIyNC41IiB4Mj0iMTEzMC43NSIgeTE9IjQ5NC43NjU2IiB5Mj0iNDk0Ljc2NTYiLz48cG9seWdvbiBmaWxsPSIjMTgxODE4IiBwb2ludHM9IjExNDAuNzUsNDkwLjc2NTYsMTEzMC43NSw0OTQuNzY1NiwxMTQwLjc1LDQ5OC43NjU2LDExMzYuNzUsNDk0Ljc2NTYiIHN0eWxlPSJzdHJva2U6IzE4MTgxODtzdHJva2Utd2lkdGg6MS4wOyIvPjxsaW5lIHN0eWxlPSJzdHJva2U6IzE4MTgxODtzdHJva2Utd2lkdGg6MS4wOyIgeDE9IjExMTguNzUiIHgyPSIxMTE4Ljc1IiB5MT0iMzc0LjkyMTkiIHkyPSI0MDkuOTIxOSIvPjxwb2x5Z29uIGZpbGw9IiMxODE4MTgiIHBvaW50cz0iMTExNC43NSwzOTkuOTIxOSwxMTE4Ljc1LDQwOS45MjE5LDExMjIuNzUsMzk5LjkyMTksMTExOC43NSw0MDMuOTIxOSIgc3R5bGU9InN0cm9rZTojMTgxODE4O3N0cm9rZS13aWR0aDoxLjA7Ii8+PGxpbmUgc3R5bGU9InN0cm9rZTojMTgxODE4O3N0cm9rZS13aWR0aDoxLjA7IiB4MT0iMTQ0OC41IiB4Mj0iMTQ0OC41IiB5MT0iMzc0LjkyMTkiIHkyPSI0MDkuOTIxOSIvPjxwb2x5Z29uIGZpbGw9IiMxODE4MTgiIHBvaW50cz0iMTQ0NC41LDM5OS45MjE5LDE0NDguNSw0MDkuOTIxOSwxNDUyLjUsMzk5LjkyMTksMTQ0OC41LDQwMy45MjE5IiBzdHlsZT0ic3Ryb2tlOiMxODE4MTg7c3Ryb2tlLXdpZHRoOjEuMDsiLz48bGluZSBzdHlsZT0ic3Ryb2tlOiMxODE4MTg7c3Ryb2tlLXdpZHRoOjEuMDsiIHgxPSIxNDQ4LjUiIHgyPSIxNDQ4LjUiIHkxPSI0NDIuNzY1NiIgeTI9IjQ3Ny43NjU2Ii8+PHBvbHlnb24gZmlsbD0iIzE4MTgxOCIgcG9pbnRzPSIxNDQ0LjUsNDY3Ljc2NTYsMTQ0OC41LDQ3Ny43NjU2LDE0NTIuNSw0NjcuNzY1NiwxNDQ4LjUsNDcxLjc2NTYiIHN0eWxlPSJzdHJva2U6IzE4MTgxODtzdHJva2Utd2lkdGg6MS4wOyIvPjxsaW5lIHN0eWxlPSJzdHJva2U6IzE4MTgxODtzdHJva2Utd2lkdGg6MS4wOyIgeDE9IjE2NTEuNSIgeDI9IjE2NTEuNSIgeTE9IjM3NC45MjE5IiB5Mj0iNDA5LjkyMTkiLz48cG9seWdvbiBmaWxsPSIjMTgxODE4IiBwb2ludHM9IjE2NDcuNSwzOTkuOTIxOSwxNjUxLjUsNDA5LjkyMTksMTY1NS41LDM5OS45MjE5LDE2NTEuNSw0MDMuOTIxOSIgc3R5bGU9InN0cm9rZTojMTgxODE4O3N0cm9rZS13aWR0aDoxLjA7Ii8+PGxpbmUgc3R5bGU9InN0cm9rZTojMTgxODE4O3N0cm9rZS13aWR0aDoxLjA7IiB4MT0iMTY1MS41IiB4Mj0iMTY1MS41IiB5MT0iNDQyLjc2NTYiIHkyPSI0NzcuNzY1NiIvPjxwb2x5Z29uIGZpbGw9IiMxODE4MTgiIHBvaW50cz0iMTY0Ny41LDQ2Ny43NjU2LDE2NTEuNSw0NzcuNzY1NiwxNjU1LjUsNDY3Ljc2NTYsMTY1MS41LDQ3MS43NjU2IiBzdHlsZT0ic3Ryb2tlOiMxODE4MTg7c3Ryb2tlLXdpZHRoOjEuMDsiLz48bGluZSBzdHlsZT0ic3Ryb2tlOiMxODE4MTg7c3Ryb2tlLXdpZHRoOjEuMDsiIHgxPSIxODU0IiB4Mj0iMTgzNiIgeTE9IjQyMS45MjE5IiB5Mj0iNDIxLjkyMTkiLz48bGluZSBzdHlsZT0ic3Ryb2tlOiMxODE4MTg7c3Ryb2tlLXdpZHRoOjEuMDsiIHgxPSIxODM2IiB4Mj0iMTgzNiIgeTE9IjQyMS45MjE5IiB5Mj0iNDQzLjkyMTkiLz48cG9seWdvbiBmaWxsPSIjMTgxODE4IiBwb2ludHM9IjE4MzIsNDMzLjkyMTksMTgzNiw0NDMuOTIxOSwxODQwLDQzMy45MjE5LDE4MzYsNDM3LjkyMTkiIHN0eWxlPSJzdHJva2U6IzE4MTgxODtzdHJva2Utd2lkdGg6MS4wOyIvPjxsaW5lIHN0eWxlPSJzdHJva2U6IzE4MTgxODtzdHJva2Utd2lkdGg6MS4wOyIgeDE9IjIwMjIiIHgyPSIyMDQwIiB5MT0iNDIxLjkyMTkiIHkyPSI0MjEuOTIxOSIvPjxsaW5lIHN0eWxlPSJzdHJva2U6IzE4MTgxODtzdHJva2Utd2lkdGg6MS4wOyIgeDE9IjIwNDAiIHgyPSIyMDQwIiB5MT0iNDIxLjkyMTkiIHkyPSI0NDMuOTIxOSIvPjxwb2x5Z29uIGZpbGw9IiMxODE4MTgiIHBvaW50cz0iMjAzNiw0MzMuOTIxOSwyMDQwLDQ0My45MjE5LDIwNDQsNDMzLjkyMTksMjA0MCw0MzcuOTIxOSIgc3R5bGU9InN0cm9rZTojMTgxODE4O3N0cm9rZS13aWR0aDoxLjA7Ii8+PGxpbmUgc3R5bGU9InN0cm9rZTojMTgxODE4O3N0cm9rZS13aWR0aDoxLjA7IiB4MT0iMTgzNiIgeDI9IjE4MzYiIHkxPSI0NzYuNzY1NiIgeTI9IjQ5NC43NjU2Ii8+PGxpbmUgc3R5bGU9InN0cm9rZTojMTgxODE4O3N0cm9rZS13aWR0aDoxLjA7IiB4MT0iMTgzNiIgeDI9IjE5MjYiIHkxPSI0OTQuNzY1NiIgeTI9IjQ5NC43NjU2Ii8+PHBvbHlnb24gZmlsbD0iIzE4MTgxOCIgcG9pbnRzPSIxOTE2LDQ5MC43NjU2LDE5MjYsNDk0Ljc2NTYsMTkxNiw0OTguNzY1NiwxOTIwLDQ5NC43NjU2IiBzdHlsZT0ic3Ryb2tlOiMxODE4MTg7c3Ryb2tlLXdpZHRoOjEuMDsiLz48bGluZSBzdHlsZT0ic3Ryb2tlOiMxODE4MTg7c3Ryb2tlLXdpZHRoOjEuMDsiIHgxPSIyMDQwIiB4Mj0iMjA0MCIgeTE9IjQ3Ni43NjU2IiB5Mj0iNDk0Ljc2NTYiLz48bGluZSBzdHlsZT0ic3Ryb2tlOiMxODE4MTg7c3Ryb2tlLXdpZHRoOjEuMDsiIHgxPSIyMDQwIiB4Mj0iMTk1MCIgeTE9IjQ5NC43NjU2IiB5Mj0iNDk0Ljc2NTYiLz48cG9seWdvbiBmaWxsPSIjMTgxODE4IiBwb2ludHM9IjE5NjAsNDkwLjc2NTYsMTk1MCw0OTQuNzY1NiwxOTYwLDQ5OC43NjU2LDE5NTYsNDk0Ljc2NTYiIHN0eWxlPSJzdHJva2U6IzE4MTgxODtzdHJva2Utd2lkdGg6MS4wOyIvPjxsaW5lIHN0eWxlPSJzdHJva2U6IzE4MTgxODtzdHJva2Utd2lkdGg6MS4wOyIgeDE9IjE5MzgiIHgyPSIxOTM4IiB5MT0iMzc0LjkyMTkiIHkyPSI0MDkuOTIxOSIvPjxwb2x5Z29uIGZpbGw9IiMxODE4MTgiIHBvaW50cz0iMTkzNCwzOTkuOTIxOSwxOTM4LDQwOS45MjE5LDE5NDIsMzk5LjkyMTksMTkzOCw0MDMuOTIxOSIgc3R5bGU9InN0cm9rZTojMTgxODE4O3N0cm9rZS13aWR0aDoxLjA7Ii8+PGxpbmUgc3R5bGU9InN0cm9rZTojMTgxODE4O3N0cm9rZS13aWR0aDoxLjA7IiB4MT0iMjQ1MS41IiB4Mj0iMjQ1MS41IiB5MT0iNDc2Ljc2NTYiIHkyPSI1MTEuNzY1NiIvPjxwb2x5Z29uIGZpbGw9IiMxODE4MTgiIHBvaW50cz0iMjQ0Ny41LDUwMS43NjU2LDI0NTEuNSw1MTEuNzY1NiwyNDU1LjUsNTAxLjc2NTYsMjQ1MS41LDUwNS43NjU2IiBzdHlsZT0ic3Ryb2tlOiMxODE4MTg7c3Ryb2tlLXdpZHRoOjEuMDsiLz48bGluZSBzdHlsZT0ic3Ryb2tlOiMxODE4MTg7c3Ryb2tlLXdpZHRoOjEuMDsiIHgxPSIyMjc5IiB4Mj0iMjI1Ni41IiB5MT0iNDIxLjkyMTkiIHkyPSI0MjEuOTIxOSIvPjxsaW5lIHN0eWxlPSJzdHJva2U6IzE4MTgxODtzdHJva2Utd2lkdGg6MS4wOyIgeDE9IjIyNTYuNSIgeDI9IjIyNTYuNSIgeTE9IjQyMS45MjE5IiB5Mj0iNDQzLjkyMTkiLz48cG9seWdvbiBmaWxsPSIjMTgxODE4IiBwb2ludHM9IjIyNTIuNSw0MzMuOTIxOSwyMjU2LjUsNDQzLjkyMTksMjI2MC41LDQzMy45MjE5LDIyNTYuNSw0MzcuOTIxOSIgc3R5bGU9InN0cm9rZTojMTgxODE4O3N0cm9rZS13aWR0aDoxLjA7Ii8+PGxpbmUgc3R5bGU9InN0cm9rZTojMTgxODE4O3N0cm9rZS13aWR0aDoxLjA7IiB4MT0iMjQyOSIgeDI9IjI0NTEuNSIgeTE9IjQyMS45MjE5IiB5Mj0iNDIxLjkyMTkiLz48bGluZSBzdHlsZT0ic3Ryb2tlOiMxODE4MTg7c3Ryb2tlLXdpZHRoOjEuMDsiIHgxPSIyNDUxLjUiIHgyPSIyNDUxLjUiIHkxPSI0MjEuOTIxOSIgeTI9IjQ0My45MjE5Ii8+PHBvbHlnb24gZmlsbD0iIzE4MTgxOCIgcG9pbnRzPSIyNDQ3LjUsNDMzLjkyMTksMjQ1MS41LDQ0My45MjE5LDI0NTUuNSw0MzMuOTIxOSwyNDUxLjUsNDM3LjkyMTkiIHN0eWxlPSJzdHJva2U6IzE4MTgxODtzdHJva2Utd2lkdGg6MS4wOyIvPjxsaW5lIHN0eWxlPSJzdHJva2U6IzE4MTgxODtzdHJva2Utd2lkdGg6MS4wOyIgeDE9IjIyNTYuNSIgeDI9IjIyNTYuNSIgeTE9IjQ3Ni43NjU2IiB5Mj0iNTYyLjYwOTQiLz48bGluZSBzdHlsZT0ic3Ryb2tlOiMxODE4MTg7c3Ryb2tlLXdpZHRoOjEuMDsiIHgxPSIyMjU2LjUiIHgyPSIyMzQyIiB5MT0iNTYyLjYwOTQiIHkyPSI1NjIuNjA5NCIvPjxwb2x5Z29uIGZpbGw9IiMxODE4MTgiIHBvaW50cz0iMjMzMiw1NTguNjA5NCwyMzQyLDU2Mi42MDk0LDIzMzIsNTY2LjYwOTQsMjMzNiw1NjIuNjA5NCIgc3R5bGU9InN0cm9rZTojMTgxODE4O3N0cm9rZS13aWR0aDoxLjA7Ii8+PGxpbmUgc3R5bGU9InN0cm9rZTojMTgxODE4O3N0cm9rZS13aWR0aDoxLjA7IiB4MT0iMjQ1MS41IiB4Mj0iMjQ1MS41IiB5MT0iNTQ0LjYwOTQiIHkyPSI1NjIuNjA5NCIvPjxsaW5lIHN0eWxlPSJzdHJva2U6IzE4MTgxODtzdHJva2Utd2lkdGg6MS4wOyIgeDE9IjI0NTEuNSIgeDI9IjIzNjYiIHkxPSI1NjIuNjA5NCIgeTI9IjU2Mi42MDk0Ii8+PHBvbHlnb24gZmlsbD0iIzE4MTgxOCIgcG9pbnRzPSIyMzc2LDU1OC42MDk0LDIzNjYsNTYyLjYwOTQsMjM3Niw1NjYuNjA5NCwyMzcyLDU2Mi42MDk0IiBzdHlsZT0ic3Ryb2tlOiMxODE4MTg7c3Ryb2tlLXdpZHRoOjEuMDsiLz48bGluZSBzdHlsZT0ic3Ryb2tlOiMxODE4MTg7c3Ryb2tlLXdpZHRoOjEuMDsiIHgxPSIyMzU0IiB4Mj0iMjM1NCIgeTE9IjM3NC45MjE5IiB5Mj0iNDA5LjkyMTkiLz48cG9seWdvbiBmaWxsPSIjMTgxODE4IiBwb2ludHM9IjIzNTAsMzk5LjkyMTksMjM1NCw0MDkuOTIxOSwyMzU4LDM5OS45MjE5LDIzNTQsNDAzLjkyMTkiIHN0eWxlPSJzdHJva2U6IzE4MTgxODtzdHJva2Utd2lkdGg6MS4wOyIvPjxsaW5lIHN0eWxlPSJzdHJva2U6IzE4MTgxODtzdHJva2Utd2lkdGg6MS4wOyIgeDE9IjI2NTQuNSIgeDI9IjI2NTQuNSIgeTE9IjM3NC45MjE5IiB5Mj0iNDA5LjkyMTkiLz48cG9seWdvbiBmaWxsPSIjMTgxODE4IiBwb2ludHM9IjI2NTAuNSwzOTkuOTIxOSwyNjU0LjUsNDA5LjkyMTksMjY1OC41LDM5OS45MjE5LDI2NTQuNSw0MDMuOTIxOSIgc3R5bGU9InN0cm9rZTojMTgxODE4O3N0cm9rZS13aWR0aDoxLjA7Ii8+PGxpbmUgc3R5bGU9InN0cm9rZTojMTgxODE4O3N0cm9rZS13aWR0aDoxLjA7IiB4MT0iMjY1NC41IiB4Mj0iMjY1NC41IiB5MT0iNDQyLjc2NTYiIHkyPSI0NzcuNzY1NiIvPjxwb2x5Z29uIGZpbGw9IiMxODE4MTgiIHBvaW50cz0iMjY1MC41LDQ2Ny43NjU2LDI2NTQuNSw0NzcuNzY1NiwyNjU4LjUsNDY3Ljc2NTYsMjY1NC41LDQ3MS43NjU2IiBzdHlsZT0ic3Ryb2tlOiMxODE4MTg7c3Ryb2tlLXdpZHRoOjEuMDsiLz48bGluZSBzdHlsZT0ic3Ryb2tlOiMxODE4MTg7c3Ryb2tlLXdpZHRoOjEuMDsiIHgxPSIyODg5LjUiIHgyPSIyODg5LjUiIHkxPSI0NzYuNzY1NiIgeTI9IjUxMS43NjU2Ii8+PHBvbHlnb24gZmlsbD0iIzE4MTgxOCIgcG9pbnRzPSIyODg1LjUsNTAxLjc2NTYsMjg4OS41LDUxMS43NjU2LDI4OTMuNSw1MDEuNzY1NiwyODg5LjUsNTA1Ljc2NTYiIHN0eWxlPSJzdHJva2U6IzE4MTgxODtzdHJva2Utd2lkdGg6MS4wOyIvPjxsaW5lIHN0eWxlPSJzdHJva2U6IzE4MTgxODtzdHJva2Utd2lkdGg6MS4wOyIgeDE9IjI4ODkuNSIgeDI9IjI4ODkuNSIgeTE9IjU0NC42MDk0IiB5Mj0iNTc5LjYwOTQiLz48cG9seWdvbiBmaWxsPSIjMTgxODE4IiBwb2ludHM9IjI4ODUuNSw1NjkuNjA5NCwyODg5LjUsNTc5LjYwOTQsMjg5My41LDU2OS42MDk0LDI4ODkuNSw1NzMuNjA5NCIgc3R5bGU9InN0cm9rZTojMTgxODE4O3N0cm9rZS13aWR0aDoxLjA7Ii8+PGxpbmUgc3R5bGU9InN0cm9rZTojMTgxODE4O3N0cm9rZS13aWR0aDoxLjA7IiB4MT0iMjkxNCIgeDI9IjI4ODkuNSIgeTE9IjQyMS45MjE5IiB5Mj0iNDIxLjkyMTkiLz48bGluZSBzdHlsZT0ic3Ryb2tlOiMxODE4MTg7c3Ryb2tlLXdpZHRoOjEuMDsiIHgxPSIyODg5LjUiIHgyPSIyODg5LjUiIHkxPSI0MjEuOTIxOSIgeTI9IjQ0My45MjE5Ii8+PHBvbHlnb24gZmlsbD0iIzE4MTgxOCIgcG9pbnRzPSIyODg1LjUsNDMzLjkyMTksMjg4OS41LDQ0My45MjE5LDI4OTMuNSw0MzMuOTIxOSwyODg5LjUsNDM3LjkyMTkiIHN0eWxlPSJzdHJva2U6IzE4MTgxODtzdHJva2Utd2lkdGg6MS4wOyIvPjxsaW5lIHN0eWxlPSJzdHJva2U6IzE4MTgxODtzdHJva2Utd2lkdGg6MS4wOyIgeDE9IjMwNzYiIHgyPSIzMTAwLjUiIHkxPSI0MjEuOTIxOSIgeTI9IjQyMS45MjE5Ii8+PGxpbmUgc3R5bGU9InN0cm9rZTojMTgxODE4O3N0cm9rZS13aWR0aDoxLjA7IiB4MT0iMzEwMC41IiB4Mj0iMzEwMC41IiB5MT0iNDIxLjkyMTkiIHkyPSI0NDMuOTIxOSIvPjxwb2x5Z29uIGZpbGw9IiMxODE4MTgiIHBvaW50cz0iMzA5Ni41LDQzMy45MjE5LDMxMDAuNSw0NDMuOTIxOSwzMTA0LjUsNDMzLjkyMTksMzEwMC41LDQzNy45MjE5IiBzdHlsZT0ic3Ryb2tlOiMxODE4MTg7c3Ryb2tlLXdpZHRoOjEuMDsiLz48bGluZSBzdHlsZT0ic3Ryb2tlOiMxODE4MTg7c3Ryb2tlLXdpZHRoOjEuMDsiIHgxPSIyODg5LjUiIHgyPSIyODg5LjUiIHkxPSI2MTIuNDUzMSIgeTI9IjYzMC40NTMxIi8+PGxpbmUgc3R5bGU9InN0cm9rZTojMTgxODE4O3N0cm9rZS13aWR0aDoxLjA7IiB4MT0iMjg4OS41IiB4Mj0iMjk4MyIgeTE9IjYzMC40NTMxIiB5Mj0iNjMwLjQ1MzEiLz48cG9seWdvbiBmaWxsPSIjMTgxODE4IiBwb2ludHM9IjI5NzMsNjI2LjQ1MzEsMjk4Myw2MzAuNDUzMSwyOTczLDYzNC40NTMxLDI5NzcsNjMwLjQ1MzEiIHN0eWxlPSJzdHJva2U6IzE4MTgxODtzdHJva2Utd2lkdGg6MS4wOyIvPjxsaW5lIHN0eWxlPSJzdHJva2U6IzE4MTgxODtzdHJva2Utd2lkdGg6MS4wOyIgeDE9IjMxMDAuNSIgeDI9IjMxMDAuNSIgeTE9IjQ3Ni43NjU2IiB5Mj0iNjMwLjQ1MzEiLz48bGluZSBzdHlsZT0ic3Ryb2tlOiMxODE4MTg7c3Ryb2tlLXdpZHRoOjEuMDsiIHgxPSIzMTAwLjUiIHgyPSIzMDA3IiB5MT0iNjMwLjQ1MzEiIHkyPSI2MzAuNDUzMSIvPjxwb2x5Z29uIGZpbGw9IiMxODE4MTgiIHBvaW50cz0iMzAxNyw2MjYuNDUzMSwzMDA3LDYzMC40NTMxLDMwMTcsNjM0LjQ1MzEsMzAxMyw2MzAuNDUzMSIgc3R5bGU9InN0cm9rZTojMTgxODE4O3N0cm9rZS13aWR0aDoxLjA7Ii8+PGxpbmUgc3R5bGU9InN0cm9rZTojMTgxODE4O3N0cm9rZS13aWR0aDoxLjA7IiB4MT0iMjk5NSIgeDI9IjI5OTUiIHkxPSIzNzQuOTIxOSIgeTI9IjQwOS45MjE5Ii8+PHBvbHlnb24gZmlsbD0iIzE4MTgxOCIgcG9pbnRzPSIyOTkxLDM5OS45MjE5LDI5OTUsNDA5LjkyMTksMjk5OSwzOTkuOTIxOSwyOTk1LDQwMy45MjE5IiBzdHlsZT0ic3Ryb2tlOiMxODE4MTg7c3Ryb2tlLXdpZHRoOjEuMDsiLz48bGluZSBzdHlsZT0ic3Ryb2tlOiMxODE4MTg7c3Ryb2tlLXdpZHRoOjEuMDsiIHgxPSIzMzA5LjUiIHgyPSIzMzA5LjUiIHkxPSIzNzQuOTIxOSIgeTI9IjQwOS45MjE5Ii8+PHBvbHlnb24gZmlsbD0iIzE4MTgxOCIgcG9pbnRzPSIzMzA1LjUsMzk5LjkyMTksMzMwOS41LDQwOS45MjE5LDMzMTMuNSwzOTkuOTIxOSwzMzA5LjUsNDAzLjkyMTkiIHN0eWxlPSJzdHJva2U6IzE4MTgxODtzdHJva2Utd2lkdGg6MS4wOyIvPjxsaW5lIHN0eWxlPSJzdHJva2U6IzE4MTgxODtzdHJva2Utd2lkdGg6MS4wOyIgeDE9IjMzMDkuNSIgeDI9IjMzMDkuNSIgeTE9IjQ0Mi43NjU2IiB5Mj0iNDc3Ljc2NTYiLz48cG9seWdvbiBmaWxsPSIjMTgxODE4IiBwb2ludHM9IjMzMDUuNSw0NjcuNzY1NiwzMzA5LjUsNDc3Ljc2NTYsMzMxMy41LDQ2Ny43NjU2LDMzMDkuNSw0NzEuNzY1NiIgc3R5bGU9InN0cm9rZTojMTgxODE4O3N0cm9rZS13aWR0aDoxLjA7Ii8+PGxpbmUgc3R5bGU9InN0cm9rZTojMTgxODE4O3N0cm9rZS13aWR0aDoxLjA7IiB4MT0iMzU1Ny41IiB4Mj0iMzU1Ny41IiB5MT0iNDc2Ljc2NTYiIHkyPSI1MTEuNzY1NiIvPjxwb2x5Z29uIGZpbGw9IiMxODE4MTgiIHBvaW50cz0iMzU1My41LDUwMS43NjU2LDM1NTcuNSw1MTEuNzY1NiwzNTYxLjUsNTAxLjc2NTYsMzU1Ny41LDUwNS43NjU2IiBzdHlsZT0ic3Ryb2tlOiMxODE4MTg7c3Ryb2tlLXdpZHRoOjEuMDsiLz48bGluZSBzdHlsZT0ic3Ryb2tlOiMxODE4MTg7c3Ryb2tlLXdpZHRoOjEuMDsiIHgxPSIzNjExLjUiIHgyPSIzNTU3LjUiIHkxPSI0MjEuOTIxOSIgeTI9IjQyMS45MjE5Ii8+PGxpbmUgc3R5bGU9InN0cm9rZTojMTgxODE4O3N0cm9rZS13aWR0aDoxLjA7IiB4MT0iMzU1Ny41IiB4Mj0iMzU1Ny41IiB5MT0iNDIxLjkyMTkiIHkyPSI0NDMuOTIxOSIvPjxwb2x5Z29uIGZpbGw9IiMxODE4MTgiIHBvaW50cz0iMzU1My41LDQzMy45MjE5LDM1NTcuNSw0NDMuOTIxOSwzNTYxLjUsNDMzLjkyMTksMzU1Ny41LDQzNy45MjE5IiBzdHlsZT0ic3Ryb2tlOiMxODE4MTg7c3Ryb2tlLXdpZHRoOjEuMDsiLz48bGluZSBzdHlsZT0ic3Ryb2tlOiMxODE4MTg7c3Ryb2tlLXdpZHRoOjEuMDsiIHgxPSIzNzEzLjUiIHgyPSIzNzY3LjUiIHkxPSI0MjEuOTIxOSIgeTI9IjQyMS45MjE5Ii8+PGxpbmUgc3R5bGU9InN0cm9rZTojMTgxODE4O3N0cm9rZS13aWR0aDoxLjA7IiB4MT0iMzc2Ny41IiB4Mj0iMzc2Ny41IiB5MT0iNDIxLjkyMTkiIHkyPSI0NDMuOTIxOSIvPjxwb2x5Z29uIGZpbGw9IiMxODE4MTgiIHBvaW50cz0iMzc2My41LDQzMy45MjE5LDM3NjcuNSw0NDMuOTIxOSwzNzcxLjUsNDMzLjkyMTksMzc2Ny41LDQzNy45MjE5IiBzdHlsZT0ic3Ryb2tlOiMxODE4MTg7c3Ryb2tlLXdpZHRoOjEuMDsiLz48bGluZSBzdHlsZT0ic3Ryb2tlOiMxODE4MTg7c3Ryb2tlLXdpZHRoOjEuMDsiIHgxPSIzNTU3LjUiIHgyPSIzNTU3LjUiIHkxPSI1NDQuNjA5NCIgeTI9IjU2Mi42MDk0Ii8+PGxpbmUgc3R5bGU9InN0cm9rZTojMTgxODE4O3N0cm9rZS13aWR0aDoxLjA7IiB4MT0iMzU1Ny41IiB4Mj0iMzY1MC41IiB5MT0iNTYyLjYwOTQiIHkyPSI1NjIuNjA5NCIvPjxwb2x5Z29uIGZpbGw9IiMxODE4MTgiIHBvaW50cz0iMzY0MC41LDU1OC42MDk0LDM2NTAuNSw1NjIuNjA5NCwzNjQwLjUsNTY2LjYwOTQsMzY0NC41LDU2Mi42MDk0IiBzdHlsZT0ic3Ryb2tlOiMxODE4MTg7c3Ryb2tlLXdpZHRoOjEuMDsiLz48bGluZSBzdHlsZT0ic3Ryb2tlOiMxODE4MTg7c3Ryb2tlLXdpZHRoOjEuMDsiIHgxPSIzNzY3LjUiIHgyPSIzNzY3LjUiIHkxPSI0NzYuNzY1NiIgeTI9IjU2Mi42MDk0Ii8+PGxpbmUgc3R5bGU9InN0cm9rZTojMTgxODE4O3N0cm9rZS13aWR0aDoxLjA7IiB4MT0iMzc2Ny41IiB4Mj0iMzY3NC41IiB5MT0iNTYyLjYwOTQiIHkyPSI1NjIuNjA5NCIvPjxwb2x5Z29uIGZpbGw9IiMxODE4MTgiIHBvaW50cz0iMzY4NC41LDU1OC42MDk0LDM2NzQuNSw1NjIuNjA5NCwzNjg0LjUsNTY2LjYwOTQsMzY4MC41LDU2Mi42MDk0IiBzdHlsZT0ic3Ryb2tlOiMxODE4MTg7c3Ryb2tlLXdpZHRoOjEuMDsiLz48bGluZSBzdHlsZT0ic3Ryb2tlOiMxODE4MTg7c3Ryb2tlLXdpZHRoOjEuMDsiIHgxPSIzNjYyLjUiIHgyPSIzNjYyLjUiIHkxPSIzNzQuOTIxOSIgeTI9IjQwOS45MjE5Ii8+PHBvbHlnb24gZmlsbD0iIzE4MTgxOCIgcG9pbnRzPSIzNjU4LjUsMzk5LjkyMTksMzY2Mi41LDQwOS45MjE5LDM2NjYuNSwzOTkuOTIxOSwzNjYyLjUsNDAzLjkyMTkiIHN0eWxlPSJzdHJva2U6IzE4MTgxODtzdHJva2Utd2lkdGg6MS4wOyIvPjxsaW5lIHN0eWxlPSJzdHJva2U6IzE4MTgxODtzdHJva2Utd2lkdGg6MS4wOyIgeDE9IjE4ODUuMjUiIHgyPSIxMTkiIHkxPSIyOTYuNTMxMyIgeTI9IjI5Ni41MzEzIi8+PGxpbmUgc3R5bGU9InN0cm9rZTojMTgxODE4O3N0cm9rZS13aWR0aDoxLjA7IiB4MT0iMTE5IiB4Mj0iMTE5IiB5MT0iMjk2LjUzMTMiIHkyPSIzNDIuMDc4MSIvPjxwb2x5Z29uIGZpbGw9IiMxODE4MTgiIHBvaW50cz0iMTE1LDMzMi4wNzgxLDExOSwzNDIuMDc4MSwxMjMsMzMyLjA3ODEsMTE5LDMzNi4wNzgxIiBzdHlsZT0ic3Ryb2tlOiMxODE4MTg7c3Ryb2tlLXdpZHRoOjEuMDsiLz48dGV4dCBmaWxsPSIjMDAwMDAwIiBmb250LWZhbWlseT0ic2Fucy1zZXJpZiIgZm9udC1zaXplPSIxMSIgbGVuZ3RoQWRqdXN0PSJzcGFjaW5nIiB0ZXh0TGVuZ3RoPSI5MCIgeD0iMTE5IiB5PSIzMjMuODE2NCI+VGFrZSBBc3Nlc3NtZW50PC90ZXh0PjxsaW5lIHN0eWxlPSJzdHJva2U6IzE4MTgxODtzdHJva2Utd2lkdGg6MS4wOyIgeDE9IjE5OTkuMjUiIHgyPSIzNjYyLjUiIHkxPSIyOTYuNTMxMyIgeTI9IjI5Ni41MzEzIi8+PGxpbmUgc3R5bGU9InN0cm9rZTojMTgxODE4O3N0cm9rZS13aWR0aDoxLjA7IiB4MT0iMzY2Mi41IiB4Mj0iMzY2Mi41IiB5MT0iMjk2LjUzMTMiIHkyPSIzNDIuMDc4MSIvPjxwb2x5Z29uIGZpbGw9IiMxODE4MTgiIHBvaW50cz0iMzY1OC41LDMzMi4wNzgxLDM2NjIuNSwzNDIuMDc4MSwzNjY2LjUsMzMyLjA3ODEsMzY2Mi41LDMzNi4wNzgxIiBzdHlsZT0ic3Ryb2tlOiMxODE4MTg7c3Ryb2tlLXdpZHRoOjEuMDsiLz48dGV4dCBmaWxsPSIjMDAwMDAwIiBmb250LWZhbWlseT0ic2Fucy1zZXJpZiIgZm9udC1zaXplPSIxMSIgbGVuZ3RoQWRqdXN0PSJzcGFjaW5nIiB0ZXh0TGVuZ3RoPSI4NCIgeD0iMzY2Mi41IiB5PSIzMjMuODE2NCI+UmVzZXQgUGFzc3dvcmQ8L3RleHQ+PGxpbmUgc3R5bGU9InN0cm9rZTojMTgxODE4O3N0cm9rZS13aWR0aDoxLjA7IiB4MT0iNDcyIiB4Mj0iNDcyIiB5MT0iMjk2LjUzMTMiIHkyPSIzNDIuMDc4MSIvPjxwb2x5Z29uIGZpbGw9IiMxODE4MTgiIHBvaW50cz0iNDY4LDMzMi4wNzgxLDQ3MiwzNDIuMDc4MSw0NzYsMzMyLjA3ODEsNDcyLDMzNi4wNzgxIiBzdHlsZT0ic3Ryb2tlOiMxODE4MTg7c3Ryb2tlLXdpZHRoOjEuMDsiLz48dGV4dCBmaWxsPSIjMDAwMDAwIiBmb250LWZhbWlseT0ic2Fucy1zZXJpZiIgZm9udC1zaXplPSIxMSIgbGVuZ3RoQWRqdXN0PSJzcGFjaW5nIiB0ZXh0TGVuZ3RoPSI5NiIgeD0iNDcyIiB5PSIzMTguODE2NCI+R2VuZXJhdGUgUm9hZG1hcDwvdGV4dD48bGluZSBzdHlsZT0ic3Ryb2tlOiMxODE4MTg7c3Ryb2tlLXdpZHRoOjEuMDsiIHgxPSI4MjMuNSIgeDI9IjgyMy41IiB5MT0iMjk2LjUzMTMiIHkyPSIzNDIuMDc4MSIvPjxwb2x5Z29uIGZpbGw9IiMxODE4MTgiIHBvaW50cz0iODE5LjUsMzMyLjA3ODEsODIzLjUsMzQyLjA3ODEsODI3LjUsMzMyLjA3ODEsODIzLjUsMzM2LjA3ODEiIHN0eWxlPSJzdHJva2U6IzE4MTgxODtzdHJva2Utd2lkdGg6MS4wOyIvPjx0ZXh0IGZpbGw9IiMwMDAwMDAiIGZvbnQtZmFtaWx5PSJzYW5zLXNlcmlmIiBmb250LXNpemU9IjExIiBsZW5ndGhBZGp1c3Q9InNwYWNpbmciIHRleHRMZW5ndGg9Ijg0IiB4PSI4MjMuNSIgeT0iMzE4LjgxNjQiPkpvaW4gQ29tbXVuaXR5PC90ZXh0PjxsaW5lIHN0eWxlPSJzdHJva2U6IzE4MTgxODtzdHJva2Utd2lkdGg6MS4wOyIgeDE9IjExMTguNzUiIHgyPSIxMTE4Ljc1IiB5MT0iMjk2LjUzMTMiIHkyPSIzNDIuMDc4MSIvPjxwb2x5Z29uIGZpbGw9IiMxODE4MTgiIHBvaW50cz0iMTExNC43NSwzMzIuMDc4MSwxMTE4Ljc1LDM0Mi4wNzgxLDExMjIuNzUsMzMyLjA3ODEsMTExOC43NSwzMzYuMDc4MSIgc3R5bGU9InN0cm9rZTojMTgxODE4O3N0cm9rZS13aWR0aDoxLjA7Ii8+PHRleHQgZmlsbD0iIzAwMDAwMCIgZm9udC1mYW1pbHk9InNhbnMtc2VyaWYiIGZvbnQtc2l6ZT0iMTEiIGxlbmd0aEFkanVzdD0ic3BhY2luZyIgdGV4dExlbmd0aD0iMTUwIiB4PSIxMTE4Ljc1IiB5PSIzMTguODE2NCI+QWNjZXNzIExlYXJuaW5nIFJlc291cmNlczwvdGV4dD48bGluZSBzdHlsZT0ic3Ryb2tlOiMxODE4MTg7c3Ryb2tlLXdpZHRoOjEuMDsiIHgxPSIxNDQ4LjUiIHgyPSIxNDQ4LjUiIHkxPSIyOTYuNTMxMyIgeTI9IjM0Mi4wNzgxIi8+PHBvbHlnb24gZmlsbD0iIzE4MTgxOCIgcG9pbnRzPSIxNDQ0LjUsMzMyLjA3ODEsMTQ0OC41LDM0Mi4wNzgxLDE0NTIuNSwzMzIuMDc4MSwxNDQ4LjUsMzM2LjA3ODEiIHN0eWxlPSJzdHJva2U6IzE4MTgxODtzdHJva2Utd2lkdGg6MS4wOyIvPjx0ZXh0IGZpbGw9IiMwMDAwMDAiIGZvbnQtZmFtaWx5PSJzYW5zLXNlcmlmIiBmb250LXNpemU9IjExIiBsZW5ndGhBZGp1c3Q9InNwYWNpbmciIHRleHRMZW5ndGg9IjEwOCIgeD0iMTQ0OC41IiB5PSIzMTguODE2NCI+UmVxdWVzdCBNZW50b3JzaGlwPC90ZXh0PjxsaW5lIHN0eWxlPSJzdHJva2U6IzE4MTgxODtzdHJva2Utd2lkdGg6MS4wOyIgeDE9IjE2NTEuNSIgeDI9IjE2NTEuNSIgeTE9IjI5Ni41MzEzIiB5Mj0iMzQyLjA3ODEiLz48cG9seWdvbiBmaWxsPSIjMTgxODE4IiBwb2ludHM9IjE2NDcuNSwzMzIuMDc4MSwxNjUxLjUsMzQyLjA3ODEsMTY1NS41LDMzMi4wNzgxLDE2NTEuNSwzMzYuMDc4MSIgc3R5bGU9InN0cm9rZTojMTgxODE4O3N0cm9rZS13aWR0aDoxLjA7Ii8+PHRleHQgZmlsbD0iIzAwMDAwMCIgZm9udC1mYW1pbHk9InNhbnMtc2VyaWYiIGZvbnQtc2l6ZT0iMTEiIGxlbmd0aEFkanVzdD0ic3BhY2luZyIgdGV4dExlbmd0aD0iOTYiIHg9IjE2NTEuNSIgeT0iMzE4LjgxNjQiPlByb3ZpZGUgRmVlZGJhY2s8L3RleHQ+PGxpbmUgc3R5bGU9InN0cm9rZTojMTgxODE4O3N0cm9rZS13aWR0aDoxLjA7IiB4MT0iMTk0Mi4yNSIgeDI9IjE5NDIuMjUiIHkxPSIzMDguNTMxMyIgeTI9IjMxOS43MTM1Ii8+PGxpbmUgc3R5bGU9InN0cm9rZTojMTgxODE4O3N0cm9rZS13aWR0aDoxLjA7IiB4MT0iMTk0Mi4yNSIgeDI9IjE5MzgiIHkxPSIzMTkuNzEzNSIgeTI9IjMxOS43MTM1Ii8+PGxpbmUgc3R5bGU9InN0cm9rZTojMTgxODE4O3N0cm9rZS13aWR0aDoxLjA7IiB4MT0iMTkzOCIgeDI9IjE5MzgiIHkxPSIzMTkuNzEzNSIgeTI9IjM0Mi4wNzgxIi8+PHBvbHlnb24gZmlsbD0iIzE4MTgxOCIgcG9pbnRzPSIxOTM0LDMzMi4wNzgxLDE5MzgsMzQyLjA3ODEsMTk0MiwzMzIuMDc4MSwxOTM4LDMzNi4wNzgxIiBzdHlsZT0ic3Ryb2tlOiMxODE4MTg7c3Ryb2tlLXdpZHRoOjEuMDsiLz48dGV4dCBmaWxsPSIjMDAwMDAwIiBmb250LWZhbWlseT0ic2Fucy1zZXJpZiIgZm9udC1zaXplPSIxMSIgbGVuZ3RoQWRqdXN0PSJzcGFjaW5nIiB0ZXh0TGVuZ3RoPSIxMDgiIHg9IjE5MzgiIHk9IjMyNC44MTY0Ij5WaWV3IE5vdGlmaWNhdGlvbnM8L3RleHQ+PGxpbmUgc3R5bGU9InN0cm9rZTojMTgxODE4O3N0cm9rZS13aWR0aDoxLjA7IiB4MT0iMjM1NCIgeDI9IjIzNTQiIHkxPSIyOTYuNTMxMyIgeTI9IjM0Mi4wNzgxIi8+PHBvbHlnb24gZmlsbD0iIzE4MTgxOCIgcG9pbnRzPSIyMzUwLDMzMi4wNzgxLDIzNTQsMzQyLjA3ODEsMjM1OCwzMzIuMDc4MSwyMzU0LDMzNi4wNzgxIiBzdHlsZT0ic3Ryb2tlOiMxODE4MTg7c3Ryb2tlLXdpZHRoOjEuMDsiLz48dGV4dCBmaWxsPSIjMDAwMDAwIiBmb250LWZhbWlseT0ic2Fucy1zZXJpZiIgZm9udC1zaXplPSIxMSIgbGVuZ3RoQWRqdXN0PSJzcGFjaW5nIiB0ZXh0TGVuZ3RoPSI2NiIgeD0iMjM1NCIgeT0iMzE4LjgxNjQiPkVhcm4gQmFkZ2VzPC90ZXh0PjxsaW5lIHN0eWxlPSJzdHJva2U6IzE4MTgxODtzdHJva2Utd2lkdGg6MS4wOyIgeDE9IjI2NTQuNSIgeDI9IjI2NTQuNSIgeTE9IjI5Ni41MzEzIiB5Mj0iMzQyLjA3ODEiLz48cG9seWdvbiBmaWxsPSIjMTgxODE4IiBwb2ludHM9IjI2NTAuNSwzMzIuMDc4MSwyNjU0LjUsMzQyLjA3ODEsMjY1OC41LDMzMi4wNzgxLDI2NTQuNSwzMzYuMDc4MSIgc3R5bGU9InN0cm9rZTojMTgxODE4O3N0cm9rZS13aWR0aDoxLjA7Ii8+PHRleHQgZmlsbD0iIzAwMDAwMCIgZm9udC1mYW1pbHk9InNhbnMtc2VyaWYiIGZvbnQtc2l6ZT0iMTEiIGxlbmd0aEFkanVzdD0ic3BhY2luZyIgdGV4dExlbmd0aD0iMTIwIiB4PSIyNjU0LjUiIHk9IjMxOC44MTY0Ij5Eb3dubG9hZCBDZXJ0aWZpY2F0ZTwvdGV4dD48bGluZSBzdHlsZT0ic3Ryb2tlOiMxODE4MTg7c3Ryb2tlLXdpZHRoOjEuMDsiIHgxPSIyOTk1IiB4Mj0iMjk5NSIgeTE9IjI5Ni41MzEzIiB5Mj0iMzQyLjA3ODEiLz48cG9seWdvbiBmaWxsPSIjMTgxODE4IiBwb2ludHM9IjI5OTEsMzMyLjA3ODEsMjk5NSwzNDIuMDc4MSwyOTk5LDMzMi4wNzgxLDI5OTUsMzM2LjA3ODEiIHN0eWxlPSJzdHJva2U6IzE4MTgxODtzdHJva2Utd2lkdGg6MS4wOyIvPjx0ZXh0IGZpbGw9IiMwMDAwMDAiIGZvbnQtZmFtaWx5PSJzYW5zLXNlcmlmIiBmb250LXNpemU9IjExIiBsZW5ndGhBZGp1c3Q9InNwYWNpbmciIHRleHRMZW5ndGg9IjEwOCIgeD0iMjk5NSIgeT0iMzE4LjgxNjQiPk1vZGVyYXRlIENvbW11bml0eTwvdGV4dD48bGluZSBzdHlsZT0ic3Ryb2tlOiMxODE4MTg7c3Ryb2tlLXdpZHRoOjEuMDsiIHgxPSIzMzA5LjUiIHgyPSIzMzA5LjUiIHkxPSIyOTYuNTMxMyIgeTI9IjM0Mi4wNzgxIi8+PHBvbHlnb24gZmlsbD0iIzE4MTgxOCIgcG9pbnRzPSIzMzA1LjUsMzMyLjA3ODEsMzMwOS41LDM0Mi4wNzgxLDMzMTMuNSwzMzIuMDc4MSwzMzA5LjUsMzM2LjA3ODEiIHN0eWxlPSJzdHJva2U6IzE4MTgxODtzdHJva2Utd2lkdGg6MS4wOyIvPjx0ZXh0IGZpbGw9IiMwMDAwMDAiIGZvbnQtZmFtaWx5PSJzYW5zLXNlcmlmIiBmb250LXNpemU9IjExIiBsZW5ndGhBZGp1c3Q9InNwYWNpbmciIHRleHRMZW5ndGg9IjE0NCIgeD0iMzMwOS41IiB5PSIzMTguODE2NCI+TW9uaXRvciBTeXN0ZW0gQW5hbHl0aWNzPC90ZXh0PjxsaW5lIHN0eWxlPSJzdHJva2U6IzE4MTgxODtzdHJva2Utd2lkdGg6MS4wOyIgeDE9IjExOSIgeDI9IjExOSIgeTE9IjY5OS4xNDA2IiB5Mj0iNzMxLjE0MDYiLz48bGluZSBzdHlsZT0ic3Ryb2tlOiMxODE4MTg7c3Ryb2tlLXdpZHRoOjEuMDsiIHgxPSIxMTkiIHgyPSIxOTMwLjI1IiB5MT0iNzMxLjE0MDYiIHkyPSI3MzEuMTQwNiIvPjxwb2x5Z29uIGZpbGw9IiMxODE4MTgiIHBvaW50cz0iMTkyMC4yNSw3MjcuMTQwNiwxOTMwLjI1LDczMS4xNDA2LDE5MjAuMjUsNzM1LjE0MDYsMTkyNC4yNSw3MzEuMTQwNiIgc3R5bGU9InN0cm9rZTojMTgxODE4O3N0cm9rZS13aWR0aDoxLjA7Ii8+PGxpbmUgc3R5bGU9InN0cm9rZTojMTgxODE4O3N0cm9rZS13aWR0aDoxLjA7IiB4MT0iMzY2Mi41IiB4Mj0iMzY2Mi41IiB5MT0iNTc0LjYwOTQiIHkyPSI3MzEuMTQwNiIvPjxsaW5lIHN0eWxlPSJzdHJva2U6IzE4MTgxODtzdHJva2Utd2lkdGg6MS4wOyIgeDE9IjM2NjIuNSIgeDI9IjE5NTQuMjUiIHkxPSI3MzEuMTQwNiIgeTI9IjczMS4xNDA2Ii8+PHBvbHlnb24gZmlsbD0iIzE4MTgxOCIgcG9pbnRzPSIxOTY0LjI1LDcyNy4xNDA2LDE5NTQuMjUsNzMxLjE0MDYsMTk2NC4yNSw3MzUuMTQwNiwxOTYwLjI1LDczMS4xNDA2IiBzdHlsZT0ic3Ryb2tlOiMxODE4MTg7c3Ryb2tlLXdpZHRoOjEuMDsiLz48bGluZSBzdHlsZT0ic3Ryb2tlOiMxODE4MTg7c3Ryb2tlLXdpZHRoOjEuMDsiIHgxPSI0NzIiIHgyPSI0NzIiIHkxPSI1NzQuNjA5NCIgeTI9IjczMS4xNDA2Ii8+PHBvbHlnb24gZmlsbD0iIzE4MTgxOCIgcG9pbnRzPSI0NjgsNzIxLjE0MDYsNDcyLDczMS4xNDA2LDQ3Niw3MjEuMTQwNiw0NzIsNzI1LjE0MDYiIHN0eWxlPSJzdHJva2U6IzE4MTgxODtzdHJva2Utd2lkdGg6MS4wOyIvPjxsaW5lIHN0eWxlPSJzdHJva2U6IzE4MTgxODtzdHJva2Utd2lkdGg6MS4wOyIgeDE9IjgyMy41IiB4Mj0iODIzLjUiIHkxPSI2NDYuMjk2OSIgeTI9IjczMS4xNDA2Ii8+PHBvbHlnb24gZmlsbD0iIzE4MTgxOCIgcG9pbnRzPSI4MTkuNSw3MjEuMTQwNiw4MjMuNSw3MzEuMTQwNiw4MjcuNSw3MjEuMTQwNiw4MjMuNSw3MjUuMTQwNiIgc3R5bGU9InN0cm9rZTojMTgxODE4O3N0cm9rZS13aWR0aDoxLjA7Ii8+PGxpbmUgc3R5bGU9InN0cm9rZTojMTgxODE4O3N0cm9rZS13aWR0aDoxLjA7IiB4MT0iMTExOC43NSIgeDI9IjExMTguNzUiIHkxPSI1MDYuNzY1NiIgeTI9IjczMS4xNDA2Ii8+PHBvbHlnb24gZmlsbD0iIzE4MTgxOCIgcG9pbnRzPSIxMTE0Ljc1LDcyMS4xNDA2LDExMTguNzUsNzMxLjE0MDYsMTEyMi43NSw3MjEuMTQwNiwxMTE4Ljc1LDcyNS4xNDA2IiBzdHlsZT0ic3Ryb2tlOiMxODE4MTg7c3Ryb2tlLXdpZHRoOjEuMDsiLz48bGluZSBzdHlsZT0ic3Ryb2tlOiMxODE4MTg7c3Ryb2tlLXdpZHRoOjEuMDsiIHgxPSIxNDQ4LjUiIHgyPSIxNDQ4LjUiIHkxPSI1MTAuNjA5NCIgeTI9IjczMS4xNDA2Ii8+PHBvbHlnb24gZmlsbD0iIzE4MTgxOCIgcG9pbnRzPSIxNDQ0LjUsNzIxLjE0MDYsMTQ0OC41LDczMS4xNDA2LDE0NTIuNSw3MjEuMTQwNiwxNDQ4LjUsNzI1LjE0MDYiIHN0eWxlPSJzdHJva2U6IzE4MTgxODtzdHJva2Utd2lkdGg6MS4wOyIvPjxsaW5lIHN0eWxlPSJzdHJva2U6IzE4MTgxODtzdHJva2Utd2lkdGg6MS4wOyIgeDE9IjE2NTEuNSIgeDI9IjE2NTEuNSIgeTE9IjUxMC42MDk0IiB5Mj0iNzMxLjE0MDYiLz48cG9seWdvbiBmaWxsPSIjMTgxODE4IiBwb2ludHM9IjE2NDcuNSw3MjEuMTQwNiwxNjUxLjUsNzMxLjE0MDYsMTY1NS41LDcyMS4xNDA2LDE2NTEuNSw3MjUuMTQwNiIgc3R5bGU9InN0cm9rZTojMTgxODE4O3N0cm9rZS13aWR0aDoxLjA7Ii8+PGxpbmUgc3R5bGU9InN0cm9rZTojMTgxODE4O3N0cm9rZS13aWR0aDoxLjA7IiB4MT0iMTkzOCIgeDI9IjE5MzgiIHkxPSI1MDYuNzY1NiIgeTI9IjY1MS4yOTY5Ii8+PGxpbmUgc3R5bGU9InN0cm9rZTojMTgxODE4O3N0cm9rZS13aWR0aDoxLjA7IiB4MT0iMTkzOCIgeDI9IjE5NDIuMjUiIHkxPSI2NTEuMjk2OSIgeTI9IjY1MS4yOTY5Ii8+PGxpbmUgc3R5bGU9InN0cm9rZTojMTgxODE4O3N0cm9rZS13aWR0aDoxLjA7IiB4MT0iMTk0Mi4yNSIgeDI9IjE5NDIuMjUiIHkxPSI2NTEuMjk2OSIgeTI9IjcxOS4xNDA2Ii8+PHBvbHlnb24gZmlsbD0iIzE4MTgxOCIgcG9pbnRzPSIxOTM4LjI1LDcwOS4xNDA2LDE5NDIuMjUsNzE5LjE0MDYsMTk0Ni4yNSw3MDkuMTQwNiwxOTQyLjI1LDcxMy4xNDA2IiBzdHlsZT0ic3Ryb2tlOiMxODE4MTg7c3Ryb2tlLXdpZHRoOjEuMDsiLz48bGluZSBzdHlsZT0ic3Ryb2tlOiMxODE4MTg7c3Ryb2tlLXdpZHRoOjEuMDsiIHgxPSIyMzU0IiB4Mj0iMjM1NCIgeTE9IjU3NC42MDk0IiB5Mj0iNzMxLjE0MDYiLz48cG9seWdvbiBmaWxsPSIjMTgxODE4IiBwb2ludHM9IjIzNTAsNzIxLjE0MDYsMjM1NCw3MzEuMTQwNiwyMzU4LDcyMS4xNDA2LDIzNTQsNzI1LjE0MDYiIHN0eWxlPSJzdHJva2U6IzE4MTgxODtzdHJva2Utd2lkdGg6MS4wOyIvPjxsaW5lIHN0eWxlPSJzdHJva2U6IzE4MTgxODtzdHJva2Utd2lkdGg6MS4wOyIgeDE9IjI2NTQuNSIgeDI9IjI2NTQuNSIgeTE9IjUxMC42MDk0IiB5Mj0iNzMxLjE0MDYiLz48cG9seWdvbiBmaWxsPSIjMTgxODE4IiBwb2ludHM9IjI2NTAuNSw3MjEuMTQwNiwyNjU0LjUsNzMxLjE0MDYsMjY1OC41LDcyMS4xNDA2LDI2NTQuNSw3MjUuMTQwNiIgc3R5bGU9InN0cm9rZTojMTgxODE4O3N0cm9rZS13aWR0aDoxLjA7Ii8+PGxpbmUgc3R5bGU9InN0cm9rZTojMTgxODE4O3N0cm9rZS13aWR0aDoxLjA7IiB4MT0iMjk5NSIgeDI9IjI5OTUiIHkxPSI2NDIuNDUzMSIgeTI9IjczMS4xNDA2Ii8+PHBvbHlnb24gZmlsbD0iIzE4MTgxOCIgcG9pbnRzPSIyOTkxLDcyMS4xNDA2LDI5OTUsNzMxLjE0MDYsMjk5OSw3MjEuMTQwNiwyOTk1LDcyNS4xNDA2IiBzdHlsZT0ic3Ryb2tlOiMxODE4MTg7c3Ryb2tlLXdpZHRoOjEuMDsiLz48bGluZSBzdHlsZT0ic3Ryb2tlOiMxODE4MTg7c3Ryb2tlLXdpZHRoOjEuMDsiIHgxPSIzMzA5LjUiIHgyPSIzMzA5LjUiIHkxPSI1MTAuNjA5NCIgeTI9IjczMS4xNDA2Ii8+PHBvbHlnb24gZmlsbD0iIzE4MTgxOCIgcG9pbnRzPSIzMzA1LjUsNzIxLjE0MDYsMzMwOS41LDczMS4xNDA2LDMzMTMuNSw3MjEuMTQwNiwzMzA5LjUsNzI1LjE0MDYiIHN0eWxlPSJzdHJva2U6IzE4MTgxODtzdHJva2Utd2lkdGg6MS4wOyIvPjxsaW5lIHN0eWxlPSJzdHJva2U6IzE4MTgxODtzdHJva2Utd2lkdGg6MS4wOyIgeDE9IjE5NDIuMjUiIHgyPSIxOTQyLjI1IiB5MT0iMjY0LjUzMTMiIHkyPSIyODQuNTMxMyIvPjxwb2x5Z29uIGZpbGw9IiMxODE4MTgiIHBvaW50cz0iMTkzOC4yNSwyNzQuNTMxMywxOTQyLjI1LDI4NC41MzEzLDE5NDYuMjUsMjc0LjUzMTMsMTk0Mi4yNSwyNzguNTMxMyIgc3R5bGU9InN0cm9rZTojMTgxODE4O3N0cm9rZS13aWR0aDoxLjA7Ii8+PGxpbmUgc3R5bGU9InN0cm9rZTojMTgxODE4O3N0cm9rZS13aWR0aDoxLjA7IiB4MT0iMTk0Mi4yNSIgeDI9IjE5NDIuMjUiIHkxPSI3NDMuMTQwNiIgeTI9Ijc2My4xNDA2Ii8+PHBvbHlnb24gZmlsbD0iIzE4MTgxOCIgcG9pbnRzPSIxOTM4LjI1LDc1My4xNDA2LDE5NDIuMjUsNzYzLjE0MDYsMTk0Ni4yNSw3NTMuMTQwNiwxOTQyLjI1LDc1Ny4xNDA2IiBzdHlsZT0ic3Ryb2tlOiMxODE4MTg7c3Ryb2tlLXdpZHRoOjEuMDsiLz48bGluZSBzdHlsZT0ic3Ryb2tlOiMxODE4MTg7c3Ryb2tlLXdpZHRoOjEuMDsiIHgxPSIxOTQyLjI1IiB4Mj0iMTk0Mi4yNSIgeTE9Ijc5NS45ODQ0IiB5Mj0iODE1Ljk4NDQiLz48cG9seWdvbiBmaWxsPSIjMTgxODE4IiBwb2ludHM9IjE5MzguMjUsODA1Ljk4NDQsMTk0Mi4yNSw4MTUuOTg0NCwxOTQ2LjI1LDgwNS45ODQ0LDE5NDIuMjUsODA5Ljk4NDQiIHN0eWxlPSJzdHJva2U6IzE4MTgxODtzdHJva2Utd2lkdGg6MS4wOyIvPjwhLS1TUkM9W1hMUEJTamltM0R0aDU1WlFMdVdON1RUOUVqRGZFZmN1eFB3TU85alpZYkc5b2d2by1lQWFnQnlKQnhtV19XeUZXQ1c5d3hCaXVKVVgxTUxFMTU4eDAtd0NHMHF2QjNVUEZDOWdQeDUweFFIRzE1VVhQRjVieE5LcWgxZ2FUR1J5VXpZVnBHcmd4d1NHVDN1T09PakRYZWVHTGplQ1RKWUNyODNNNmhpOXAtSENiUTRrdjk0cHNRRjJ0ODdHODc4ZFpUdmFUOUNrRnlDZ0loMjBSSDJpaXJudXZ4XzQxTTVCWDRHYnZ6WDZVZkhLQVQ2MGswZ2ZuNDRYWTR3NU9qWE9EME1sNTA5czZndDJEekhlWEhsUW1qeVFvT1RGSmxScmVQRy1OeGdYSk95eGVWOVFVS2tCTEFpa09pZ2dVdXFiVDc3VVoyWEFLU0tRRkYxek5HSXZBSWs1M0MwU19FMXlndUxndGFWOVpnQUZJd2V1TXlDTXlmcUhqSjdrR0FfQlQyV1BUcEZlbExoRW9pTS1DdDVJWmRFcU90elpsVHlENHMxZG9oQk1xWk05Nm9XaWpfYmVoRlNJSDFBZG0yTDkwcWdJTS1uWmh6RUFHeEpmdXl4ZWV4R2JiNVdVNjhjcGg1OHBqZGRFY1NDRkphVEJWTzh0OTVGUmxFRHZJYUtiMVBpS0RidFJFZmtVVnRVUTVkOE44UUpOeGZwVDFKb0NhM1B6cjN4NDdFV3QzN0k1NS13MzJMTlU3T3lvZ2VtVzNUSWM5NjloWlhlU0phM2lOY0RLdmlITDVXWkZZQ0wxdjlWcldpelpBcWpKbjA1bXprWEJwTUNDNE5UMTNGMTd1V3ItNllVRkNXLTJyOWpkejlqMjNvTHpLcU82ZHBPYzhSSld4OEVrWkJHUEUyOW5Na1pCNHJDN2xlaFlyQjRnVzlFY25uRVhiOGVYREhoeDBlODEyNkxINTBydS1qdFQxUTdNMVd1QjVkVGhzRHZ1UEtVSnBIckY4bS0zVVh4REpJbFU1QjEzc21BMHd1TlhwN2xuVENLTWhPajBuaGJVdWJISXVfZE5ieUk3NXJENDl6RVRpWXJBZGRzQkxvT0NTcXc5cXVjdDdMRkFUS2xVMF9peTVXMy11LUwyenpQaXlFZHV3ZDIzT3Mxa1RkVWotaWNrMmZ6SXlhYkVrOWhjbTB2U0sxdHNtQVNhTXduWnM4dU5tblptN2pzNzRteFhDM1lQcW1JTENCSi15aExZVmdnQ2RILV9KaXU1WVNiMmRYa2RwS0ZldTlORm1DdE9PY2Ezc0Ewbk1ZWS01cXlicC1ONzdUWHBoUXJ2UEM0S3EtdVFkSjZfMDdnRjd1Q1FMRnBteWxjZnNWZFd1b0pZb2xfbkNzSnFoTUhnSmpuX2xWbTddLS0+PC9nPjwvc3ZnPg==;" vertex="1" parent="1">
            <mxGeometry x="-1510" y="-30" width="3874" height="848" as="geometry" />
          </mxCell>
        </UserObject>
      </root>
    </mxGraphModel>
  </diagram>
</mxfile>
